<svg width="1441" height="933" viewBox="0 0 1441 933" fill="none" xmlns="http://www.w3.org/2000/svg">
<rect x="1" y="1" width="1440" height="932" fill="#474747"/>
<g filter="url(#filter0_d)">
<path d="M526.468 267.099L417.041 235.866L426.131 134.004L485.821 104L526.468 267.099Z" stroke="#BDFF01" stroke-width="3"/>
<path d="M526.468 267.099L417.041 235.866L426.131 134.004L485.821 104L526.468 267.099Z" stroke="url(#paint0_linear)" stroke-width="3"/>
</g>
<g filter="url(#filter1_d)">
<path d="M1124.27 459.061L1124.92 361.7L1261.47 330.527L1124.27 459.061Z" stroke="#BDFF01" stroke-width="4"/>
<path d="M1124.27 459.061L1124.92 361.7L1261.47 330.527L1124.27 459.061Z" stroke="url(#paint1_linear)" stroke-width="4"/>
</g>
<g filter="url(#filter2_d)">
<path d="M1240.58 218.064L1209.87 159.488L1276.68 204.079L1240.58 218.064Z" stroke="#BDFF01" stroke-width="4"/>
<path d="M1240.58 218.064L1209.87 159.488L1276.68 204.079L1240.58 218.064Z" stroke="url(#paint2_linear)" stroke-width="4"/>
</g>
<g filter="url(#filter3_d)">
<path d="M996.808 278.655L954.822 293.503L948.905 238L996.808 278.655Z" stroke="#BDFF01" stroke-width="4"/>
<path d="M996.808 278.655L954.822 293.503L948.905 238L996.808 278.655Z" stroke="url(#paint3_linear)" stroke-width="4"/>
</g>
<g filter="url(#filter4_d)">
<path d="M164.642 365.905L262.885 283.099L348.287 377.383L325.044 447.858L164.642 365.905Z" stroke="#BDFF01" stroke-width="4"/>
<path d="M164.642 365.905L262.885 283.099L348.287 377.383L325.044 447.858L164.642 365.905Z" stroke="url(#paint4_linear)" stroke-width="4"/>
</g>
<path d="M1 177V1H1432V177H1Z" fill="#474747" stroke="#474747"/>
<path d="M577 320.544L714 275V427.093L577 484V320.544Z" stroke="white" stroke-width="15"/>
<path d="M719 272L861 311.919L856.459 475L714 424.438" stroke="white" stroke-width="15"/>
<path d="M572.5 488L722.122 545.5L860.5 478.5" stroke="white" stroke-width="15"/>
<path d="M757 439.847V343L804 358.042V457" stroke="white" stroke-width="15"/>
<path d="M668 343L624 359.406V411L668 395.457V343Z" stroke="white" stroke-width="15"/>
<path d="M314.95 592.02C315.57 592.34 315.88 592.85 315.88 593.55C315.88 593.97 315.73 594.38 315.43 594.78C315.11 595.2 314.7 595.41 314.2 595.41C313.86 595.41 313.52 595.32 313.18 595.14C312.2 594.68 311.14 594.45 310 594.45C308.6 594.45 307.38 594.75 306.34 595.35C305.3 595.93 304.5 596.76 303.94 597.84C303.38 598.9 303.1 600.12 303.1 601.5C303.1 603.86 303.73 605.65 304.99 606.87C306.27 608.09 307.94 608.7 310 608.7C311.22 608.7 312.28 608.47 313.18 608.01C313.54 607.85 313.86 607.77 314.14 607.77C314.66 607.77 315.1 607.99 315.46 608.43C315.76 608.81 315.91 609.22 315.91 609.66C315.91 609.98 315.83 610.27 315.67 610.53C315.51 610.79 315.28 610.99 314.98 611.13C313.42 611.91 311.76 612.3 310 612.3C308.04 612.3 306.24 611.89 304.6 611.07C302.96 610.23 301.65 609 300.67 607.38C299.69 605.76 299.2 603.8 299.2 601.5C299.2 599.46 299.66 597.63 300.58 596.01C301.52 594.39 302.81 593.13 304.45 592.23C306.09 591.31 307.94 590.85 310 590.85C311.78 590.85 313.43 591.24 314.95 592.02ZM322.659 610.17C322.659 610.69 322.479 611.13 322.119 611.49C321.779 611.83 321.349 612 320.829 612C320.329 612 319.909 611.83 319.569 611.49C319.229 611.13 319.059 610.69 319.059 610.17V591.63C319.059 591.11 319.229 590.68 319.569 590.34C319.929 589.98 320.369 589.8 320.889 589.8C321.389 589.8 321.809 589.98 322.149 590.34C322.489 590.68 322.659 591.11 322.659 591.63V610.17ZM330.235 610.17C330.235 610.69 330.065 611.13 329.725 611.49C329.385 611.83 328.955 612 328.435 612C327.915 612 327.485 611.83 327.145 611.49C326.805 611.13 326.635 610.69 326.635 610.17V597.78C326.635 597.26 326.805 596.83 327.145 596.49C327.485 596.13 327.915 595.95 328.435 595.95C328.955 595.95 329.385 596.13 329.725 596.49C330.065 596.83 330.235 597.26 330.235 597.78V610.17ZM328.405 594C327.725 594 327.245 593.89 326.965 593.67C326.685 593.45 326.545 593.06 326.545 592.5V591.93C326.545 591.37 326.695 590.98 326.995 590.76C327.295 590.54 327.775 590.43 328.435 590.43C329.135 590.43 329.625 590.54 329.905 590.76C330.185 590.98 330.325 591.37 330.325 591.93V592.5C330.325 593.08 330.175 593.48 329.875 593.7C329.595 593.9 329.105 594 328.405 594ZM340.924 595.65C342.624 595.65 343.994 595.92 345.034 596.46C346.074 596.98 346.594 597.68 346.594 598.56C346.594 599 346.464 599.39 346.204 599.73C345.944 600.05 345.604 600.21 345.184 600.21C344.864 600.21 344.604 600.17 344.404 600.09C344.204 599.99 344.004 599.87 343.804 599.73C343.624 599.57 343.444 599.44 343.264 599.34C343.064 599.24 342.764 599.15 342.364 599.07C341.984 598.99 341.674 598.95 341.434 598.95C339.934 598.95 338.754 599.42 337.894 600.36C337.054 601.28 336.634 602.49 336.634 603.99C336.634 605.43 337.064 606.63 337.924 607.59C338.784 608.53 339.884 609 341.224 609C342.204 609 342.934 608.88 343.414 608.64C343.534 608.58 343.694 608.48 343.894 608.34C344.114 608.18 344.314 608.06 344.494 607.98C344.674 607.9 344.894 607.86 345.154 607.86C345.654 607.86 346.044 608.02 346.324 608.34C346.624 608.66 346.774 609.07 346.774 609.57C346.774 610.05 346.494 610.5 345.934 610.92C345.374 611.34 344.634 611.68 343.714 611.94C342.794 612.18 341.814 612.3 340.774 612.3C339.234 612.3 337.874 611.94 336.694 611.22C335.534 610.5 334.634 609.51 333.994 608.25C333.354 606.97 333.034 605.55 333.034 603.99C333.034 602.37 333.364 600.93 334.024 599.67C334.704 598.41 335.644 597.43 336.844 596.73C338.044 596.01 339.404 595.65 340.924 595.65ZM362.724 608.85C363.104 609.25 363.294 609.7 363.294 610.2C363.294 610.7 363.094 611.12 362.694 611.46C362.314 611.8 361.904 611.97 361.464 611.97C360.944 611.97 360.504 611.77 360.144 611.37L354.744 605.67L353.274 607.02V610.17C353.274 610.69 353.104 611.13 352.764 611.49C352.424 611.83 351.994 612 351.474 612C350.954 612 350.524 611.83 350.184 611.49C349.844 611.13 349.674 610.69 349.674 610.17V591.63C349.674 591.11 349.844 590.68 350.184 590.34C350.524 589.98 350.954 589.8 351.474 589.8C351.994 589.8 352.424 589.98 352.764 590.34C353.104 590.68 353.274 591.11 353.274 591.63V602.73L359.694 596.52C360.074 596.14 360.514 595.95 361.014 595.95C361.454 595.95 361.844 596.14 362.184 596.52C362.544 596.88 362.724 597.25 362.724 597.63C362.724 598.11 362.484 598.56 362.004 598.98L357.474 603.15L362.724 608.85ZM381.852 595.65C383.552 595.65 384.922 595.92 385.962 596.46C387.002 596.98 387.522 597.68 387.522 598.56C387.522 599 387.392 599.39 387.132 599.73C386.872 600.05 386.532 600.21 386.112 600.21C385.792 600.21 385.532 600.17 385.332 600.09C385.132 599.99 384.932 599.87 384.732 599.73C384.552 599.57 384.372 599.44 384.192 599.34C383.992 599.24 383.692 599.15 383.292 599.07C382.912 598.99 382.602 598.95 382.362 598.95C380.862 598.95 379.682 599.42 378.822 600.36C377.982 601.28 377.562 602.49 377.562 603.99C377.562 605.43 377.992 606.63 378.852 607.59C379.712 608.53 380.812 609 382.152 609C383.132 609 383.862 608.88 384.342 608.64C384.462 608.58 384.622 608.48 384.822 608.34C385.042 608.18 385.242 608.06 385.422 607.98C385.602 607.9 385.822 607.86 386.082 607.86C386.582 607.86 386.972 608.02 387.252 608.34C387.552 608.66 387.702 609.07 387.702 609.57C387.702 610.05 387.422 610.5 386.862 610.92C386.302 611.34 385.562 611.68 384.642 611.94C383.722 612.18 382.742 612.3 381.702 612.3C380.162 612.3 378.802 611.94 377.622 611.22C376.462 610.5 375.562 609.51 374.922 608.25C374.282 606.97 373.962 605.55 373.962 603.99C373.962 602.37 374.292 600.93 374.952 599.67C375.632 598.41 376.572 597.43 377.772 596.73C378.972 596.01 380.332 595.65 381.852 595.65ZM398.642 595.65C399.242 595.65 399.742 595.82 400.142 596.16C400.562 596.5 400.772 596.9 400.772 597.36C400.772 597.98 400.612 598.45 400.292 598.77C399.972 599.07 399.592 599.22 399.152 599.22C398.852 599.22 398.512 599.15 398.132 599.01C398.072 598.99 397.932 598.95 397.712 598.89C397.512 598.83 397.292 598.8 397.052 598.8C396.532 598.8 396.032 598.96 395.552 599.28C395.072 599.6 394.672 600.09 394.352 600.75C394.052 601.39 393.902 602.16 393.902 603.06V610.17C393.902 610.69 393.732 611.13 393.392 611.49C393.052 611.83 392.622 612 392.102 612C391.582 612 391.152 611.83 390.812 611.49C390.472 611.13 390.302 610.69 390.302 610.17V597.78C390.302 597.26 390.472 596.83 390.812 596.49C391.152 596.13 391.582 595.95 392.102 595.95C392.622 595.95 393.052 596.13 393.392 596.49C393.732 596.83 393.902 597.26 393.902 597.78V598.17C394.362 597.35 395.022 596.73 395.882 596.31C396.742 595.87 397.662 595.65 398.642 595.65ZM417.036 603.6C417.016 604.08 416.826 604.47 416.466 604.77C416.106 605.07 415.686 605.22 415.206 605.22H405.306C405.546 606.4 406.096 607.33 406.956 608.01C407.816 608.67 408.786 609 409.866 609C410.686 609 411.326 608.93 411.786 608.79C412.246 608.63 412.606 608.47 412.866 608.31C413.146 608.13 413.336 608.01 413.436 607.95C413.796 607.77 414.136 607.68 414.456 607.68C414.876 607.68 415.236 607.83 415.536 608.13C415.836 608.43 415.986 608.78 415.986 609.18C415.986 609.72 415.706 610.21 415.146 610.65C414.586 611.11 413.836 611.5 412.896 611.82C411.956 612.14 411.006 612.3 410.046 612.3C408.366 612.3 406.896 611.95 405.636 611.25C404.396 610.55 403.436 609.59 402.756 608.37C402.076 607.13 401.736 605.74 401.736 604.2C401.736 602.48 402.096 600.97 402.816 599.67C403.536 598.37 404.486 597.38 405.666 596.7C406.846 596 408.106 595.65 409.446 595.65C410.766 595.65 412.006 596.01 413.166 596.73C414.346 597.45 415.286 598.42 415.986 599.64C416.686 600.86 417.036 602.18 417.036 603.6ZM409.446 598.95C407.126 598.95 405.756 600.04 405.336 602.22H413.196V602.01C413.116 601.17 412.706 600.45 411.966 599.85C411.226 599.25 410.386 598.95 409.446 598.95ZM433.145 595.65C433.665 595.65 434.095 595.82 434.435 596.16C434.775 596.5 434.945 596.94 434.945 597.48V610.17C434.945 610.69 434.775 611.13 434.435 611.49C434.095 611.83 433.665 612 433.145 612C432.625 612 432.195 611.83 431.855 611.49C431.535 611.15 431.365 610.72 431.345 610.2C430.845 610.78 430.165 611.28 429.305 611.7C428.465 612.1 427.575 612.3 426.635 612.3C425.255 612.3 424.005 611.95 422.885 611.25C421.765 610.53 420.875 609.54 420.215 608.28C419.575 607.02 419.255 605.59 419.255 603.99C419.255 602.39 419.575 600.96 420.215 599.7C420.855 598.42 421.725 597.43 422.825 596.73C423.945 596.01 425.175 595.65 426.515 595.65C427.475 595.65 428.375 595.83 429.215 596.19C430.055 596.53 430.765 596.97 431.345 597.51V597.48C431.345 596.96 431.515 596.53 431.855 596.19C432.195 595.83 432.625 595.65 433.145 595.65ZM427.085 609C428.385 609 429.445 608.53 430.265 607.59C431.085 606.63 431.495 605.43 431.495 603.99C431.495 602.55 431.085 601.35 430.265 600.39C429.445 599.43 428.385 598.95 427.085 598.95C425.805 598.95 424.755 599.43 423.935 600.39C423.115 601.35 422.705 602.55 422.705 603.99C422.705 605.43 423.105 606.63 423.905 607.59C424.725 608.53 425.785 609 427.085 609ZM446.586 608.61C446.866 608.61 447.116 608.75 447.336 609.03C447.576 609.29 447.696 609.64 447.696 610.08C447.696 610.62 447.396 611.08 446.796 611.46C446.216 611.82 445.556 612 444.816 612C443.576 612 442.526 611.74 441.666 611.22C440.826 610.68 440.406 609.55 440.406 607.83V599.55H439.026C438.546 599.55 438.146 599.39 437.826 599.07C437.506 598.75 437.346 598.35 437.346 597.87C437.346 597.41 437.506 597.03 437.826 596.73C438.146 596.41 438.546 596.25 439.026 596.25H440.406V594.33C440.406 593.81 440.576 593.38 440.916 593.04C441.276 592.68 441.716 592.5 442.236 592.5C442.736 592.5 443.156 592.68 443.496 593.04C443.836 593.38 444.006 593.81 444.006 594.33V596.25H446.136C446.616 596.25 447.016 596.41 447.336 596.73C447.656 597.05 447.816 597.45 447.816 597.93C447.816 598.39 447.656 598.78 447.336 599.1C447.016 599.4 446.616 599.55 446.136 599.55H444.006V607.68C444.006 608.1 444.116 608.41 444.336 608.61C444.556 608.79 444.856 608.88 445.236 608.88C445.396 608.88 445.616 608.84 445.896 608.76C446.136 608.66 446.366 608.61 446.586 608.61ZM465.375 603.6C465.355 604.08 465.165 604.47 464.805 604.77C464.445 605.07 464.025 605.22 463.545 605.22H453.645C453.885 606.4 454.435 607.33 455.295 608.01C456.155 608.67 457.125 609 458.205 609C459.025 609 459.665 608.93 460.125 608.79C460.585 608.63 460.945 608.47 461.205 608.31C461.485 608.13 461.675 608.01 461.775 607.95C462.135 607.77 462.475 607.68 462.795 607.68C463.215 607.68 463.575 607.83 463.875 608.13C464.175 608.43 464.325 608.78 464.325 609.18C464.325 609.72 464.045 610.21 463.485 610.65C462.925 611.11 462.175 611.5 461.235 611.82C460.295 612.14 459.345 612.3 458.385 612.3C456.705 612.3 455.235 611.95 453.975 611.25C452.735 610.55 451.775 609.59 451.095 608.37C450.415 607.13 450.075 605.74 450.075 604.2C450.075 602.48 450.435 600.97 451.155 599.67C451.875 598.37 452.825 597.38 454.005 596.7C455.185 596 456.445 595.65 457.785 595.65C459.105 595.65 460.345 596.01 461.505 596.73C462.685 597.45 463.625 598.42 464.325 599.64C465.025 600.86 465.375 602.18 465.375 603.6ZM457.785 598.95C455.465 598.95 454.095 600.04 453.675 602.22H461.535V602.01C461.455 601.17 461.045 600.45 460.305 599.85C459.565 599.25 458.725 598.95 457.785 598.95ZM485.126 595.65C485.726 595.65 486.226 595.82 486.626 596.16C487.046 596.5 487.256 596.9 487.256 597.36C487.256 597.98 487.096 598.45 486.776 598.77C486.456 599.07 486.076 599.22 485.636 599.22C485.336 599.22 484.996 599.15 484.616 599.01C484.556 598.99 484.416 598.95 484.196 598.89C483.996 598.83 483.776 598.8 483.536 598.8C483.016 598.8 482.516 598.96 482.036 599.28C481.556 599.6 481.156 600.09 480.836 600.75C480.536 601.39 480.386 602.16 480.386 603.06V610.17C480.386 610.69 480.216 611.13 479.876 611.49C479.536 611.83 479.106 612 478.586 612C478.066 612 477.636 611.83 477.296 611.49C476.956 611.13 476.786 610.69 476.786 610.17V597.78C476.786 597.26 476.956 596.83 477.296 596.49C477.636 596.13 478.066 595.95 478.586 595.95C479.106 595.95 479.536 596.13 479.876 596.49C480.216 596.83 480.386 597.26 480.386 597.78V598.17C480.846 597.35 481.506 596.73 482.366 596.31C483.226 595.87 484.146 595.65 485.126 595.65ZM504.54 603.99C504.54 605.59 504.18 607.03 503.46 608.31C502.74 609.57 501.75 610.55 500.49 611.25C499.25 611.95 497.88 612.3 496.38 612.3C494.86 612.3 493.48 611.95 492.24 611.25C491 610.55 490.02 609.57 489.3 608.31C488.58 607.03 488.22 605.59 488.22 603.99C488.22 602.39 488.58 600.96 489.3 599.7C490.02 598.42 491 597.43 492.24 596.73C493.48 596.01 494.86 595.65 496.38 595.65C497.88 595.65 499.25 596.01 500.49 596.73C501.75 597.43 502.74 598.42 503.46 599.7C504.18 600.96 504.54 602.39 504.54 603.99ZM500.94 603.99C500.94 603.01 500.73 602.14 500.31 601.38C499.91 600.6 499.36 600 498.66 599.58C497.98 599.16 497.22 598.95 496.38 598.95C495.54 598.95 494.77 599.16 494.07 599.58C493.39 600 492.84 600.6 492.42 601.38C492.02 602.14 491.82 603.01 491.82 603.99C491.82 604.97 492.02 605.84 492.42 606.6C492.84 607.36 493.39 607.95 494.07 608.37C494.77 608.79 495.54 609 496.38 609C497.22 609 497.98 608.79 498.66 608.37C499.36 607.95 499.91 607.36 500.31 606.6C500.73 605.84 500.94 604.97 500.94 603.99ZM522.968 603.99C522.968 605.59 522.608 607.03 521.888 608.31C521.168 609.57 520.178 610.55 518.918 611.25C517.678 611.95 516.308 612.3 514.808 612.3C513.288 612.3 511.908 611.95 510.668 611.25C509.428 610.55 508.448 609.57 507.728 608.31C507.008 607.03 506.648 605.59 506.648 603.99C506.648 602.39 507.008 600.96 507.728 599.7C508.448 598.42 509.428 597.43 510.668 596.73C511.908 596.01 513.288 595.65 514.808 595.65C516.308 595.65 517.678 596.01 518.918 596.73C520.178 597.43 521.168 598.42 521.888 599.7C522.608 600.96 522.968 602.39 522.968 603.99ZM519.368 603.99C519.368 603.01 519.158 602.14 518.738 601.38C518.338 600.6 517.788 600 517.088 599.58C516.408 599.16 515.648 598.95 514.808 598.95C513.968 598.95 513.198 599.16 512.498 599.58C511.818 600 511.268 600.6 510.848 601.38C510.448 602.14 510.248 603.01 510.248 603.99C510.248 604.97 510.448 605.84 510.848 606.6C511.268 607.36 511.818 607.95 512.498 608.37C513.198 608.79 513.968 609 514.808 609C515.648 609 516.408 608.79 517.088 608.37C517.788 607.95 518.338 607.36 518.738 606.6C519.158 605.84 519.368 604.97 519.368 603.99ZM544.485 595.65C546.465 595.65 547.835 596.26 548.595 597.48C549.355 598.68 549.735 600.35 549.735 602.49V610.17C549.735 610.69 549.565 611.13 549.225 611.49C548.885 611.83 548.455 612 547.935 612C547.415 612 546.985 611.83 546.645 611.49C546.305 611.13 546.135 610.69 546.135 610.17V602.49C546.135 601.39 545.915 600.53 545.475 599.91C545.055 599.27 544.305 598.95 543.225 598.95C542.105 598.95 541.225 599.29 540.585 599.97C539.965 600.63 539.655 601.47 539.655 602.49V610.17C539.655 610.69 539.485 611.13 539.145 611.49C538.805 611.83 538.375 612 537.855 612C537.335 612 536.905 611.83 536.565 611.49C536.225 611.13 536.055 610.69 536.055 610.17V602.49C536.055 601.39 535.835 600.53 535.395 599.91C534.975 599.27 534.225 598.95 533.145 598.95C532.025 598.95 531.145 599.29 530.505 599.97C529.885 600.63 529.575 601.47 529.575 602.49V610.17C529.575 610.69 529.405 611.13 529.065 611.49C528.725 611.83 528.295 612 527.775 612C527.255 612 526.825 611.83 526.485 611.49C526.145 611.13 525.975 610.69 525.975 610.17V597.78C525.975 597.26 526.145 596.83 526.485 596.49C526.825 596.13 527.255 595.95 527.775 595.95C528.295 595.95 528.725 596.13 529.065 596.49C529.405 596.83 529.575 597.26 529.575 597.78V598.26C530.115 597.54 530.795 596.93 531.615 596.43C532.455 595.91 533.385 595.65 534.405 595.65C536.925 595.65 538.535 596.75 539.235 598.95C539.695 598.11 540.385 597.35 541.305 596.67C542.245 595.99 543.305 595.65 544.485 595.65ZM570.35 595.65C571.73 595.65 572.98 596.01 574.1 596.73C575.22 597.43 576.1 598.41 576.74 599.67C577.4 600.93 577.73 602.36 577.73 603.96C577.73 605.56 577.41 607 576.77 608.28C576.13 609.54 575.25 610.53 574.13 611.25C573.03 611.95 571.81 612.3 570.47 612.3C569.51 612.3 568.6 612.11 567.74 611.73C566.9 611.33 566.2 610.85 565.64 610.29V610.47C565.64 610.99 565.47 611.43 565.13 611.79C564.79 612.13 564.36 612.3 563.84 612.3C563.32 612.3 562.89 612.13 562.55 611.79C562.21 611.45 562.04 611.01 562.04 610.47V591.63C562.04 591.11 562.21 590.68 562.55 590.34C562.89 589.98 563.32 589.8 563.84 589.8C564.36 589.8 564.79 589.98 565.13 590.34C565.47 590.68 565.64 591.11 565.64 591.63V597.9C566.12 597.3 566.79 596.78 567.65 596.34C568.51 595.88 569.41 595.65 570.35 595.65ZM569.9 609C571.18 609 572.23 608.52 573.05 607.56C573.87 606.6 574.28 605.4 574.28 603.96C574.28 602.52 573.87 601.33 573.05 600.39C572.25 599.43 571.2 598.95 569.9 598.95C568.6 598.95 567.54 599.43 566.72 600.39C565.9 601.33 565.49 602.52 565.49 603.96C565.49 605.4 565.9 606.6 566.72 607.56C567.54 608.52 568.6 609 569.9 609ZM592.641 595.95C593.161 595.95 593.591 596.13 593.931 596.49C594.271 596.83 594.441 597.26 594.441 597.78V605.4C594.441 607.56 593.841 609.25 592.641 610.47C591.461 611.69 589.771 612.3 587.571 612.3C585.371 612.3 583.681 611.69 582.501 610.47C581.321 609.25 580.731 607.56 580.731 605.4V597.78C580.731 597.26 580.901 596.83 581.241 596.49C581.581 596.13 582.011 595.95 582.531 595.95C583.051 595.95 583.481 596.13 583.821 596.49C584.161 596.83 584.331 597.26 584.331 597.78V605.4C584.331 606.62 584.601 607.53 585.141 608.13C585.681 608.71 586.491 609 587.571 609C588.671 609 589.491 608.71 590.031 608.13C590.571 607.53 590.841 606.62 590.841 605.4V597.78C590.841 597.26 591.011 596.83 591.351 596.49C591.691 596.13 592.121 595.95 592.641 595.95ZM606.079 608.61C606.359 608.61 606.609 608.75 606.829 609.03C607.069 609.29 607.189 609.64 607.189 610.08C607.189 610.62 606.889 611.08 606.289 611.46C605.709 611.82 605.049 612 604.309 612C603.069 612 602.019 611.74 601.159 611.22C600.319 610.68 599.899 609.55 599.899 607.83V599.55H598.519C598.039 599.55 597.639 599.39 597.319 599.07C596.999 598.75 596.839 598.35 596.839 597.87C596.839 597.41 596.999 597.03 597.319 596.73C597.639 596.41 598.039 596.25 598.519 596.25H599.899V594.33C599.899 593.81 600.069 593.38 600.409 593.04C600.769 592.68 601.209 592.5 601.729 592.5C602.229 592.5 602.649 592.68 602.989 593.04C603.329 593.38 603.499 593.81 603.499 594.33V596.25H605.629C606.109 596.25 606.509 596.41 606.829 596.73C607.149 597.05 607.309 597.45 607.309 597.93C607.309 598.39 607.149 598.78 606.829 599.1C606.509 599.4 606.109 599.55 605.629 599.55H603.499V607.68C603.499 608.1 603.609 608.41 603.829 608.61C604.049 608.79 604.349 608.88 604.729 608.88C604.889 608.88 605.109 608.84 605.389 608.76C605.629 608.66 605.859 608.61 606.079 608.61ZM618.354 608.61C618.634 608.61 618.884 608.75 619.104 609.03C619.344 609.29 619.464 609.64 619.464 610.08C619.464 610.62 619.164 611.08 618.564 611.46C617.984 611.82 617.324 612 616.584 612C615.344 612 614.294 611.74 613.434 611.22C612.594 610.68 612.174 609.55 612.174 607.83V599.55H610.794C610.314 599.55 609.914 599.39 609.594 599.07C609.274 598.75 609.114 598.35 609.114 597.87C609.114 597.41 609.274 597.03 609.594 596.73C609.914 596.41 610.314 596.25 610.794 596.25H612.174V594.33C612.174 593.81 612.344 593.38 612.684 593.04C613.044 592.68 613.484 592.5 614.004 592.5C614.504 592.5 614.924 592.68 615.264 593.04C615.604 593.38 615.774 593.81 615.774 594.33V596.25H617.904C618.384 596.25 618.784 596.41 619.104 596.73C619.424 597.05 619.584 597.45 619.584 597.93C619.584 598.39 619.424 598.78 619.104 599.1C618.784 599.4 618.384 599.55 617.904 599.55H615.774V607.68C615.774 608.1 615.884 608.41 616.104 608.61C616.324 608.79 616.624 608.88 617.004 608.88C617.164 608.88 617.384 608.84 617.664 608.76C617.904 608.66 618.134 608.61 618.354 608.61ZM638.163 603.99C638.163 605.59 637.803 607.03 637.083 608.31C636.363 609.57 635.373 610.55 634.113 611.25C632.873 611.95 631.503 612.3 630.003 612.3C628.483 612.3 627.103 611.95 625.863 611.25C624.623 610.55 623.643 609.57 622.923 608.31C622.203 607.03 621.843 605.59 621.843 603.99C621.843 602.39 622.203 600.96 622.923 599.7C623.643 598.42 624.623 597.43 625.863 596.73C627.103 596.01 628.483 595.65 630.003 595.65C631.503 595.65 632.873 596.01 634.113 596.73C635.373 597.43 636.363 598.42 637.083 599.7C637.803 600.96 638.163 602.39 638.163 603.99ZM634.563 603.99C634.563 603.01 634.353 602.14 633.933 601.38C633.533 600.6 632.983 600 632.283 599.58C631.603 599.16 630.843 598.95 630.003 598.95C629.163 598.95 628.393 599.16 627.693 599.58C627.013 600 626.463 600.6 626.043 601.38C625.643 602.14 625.443 603.01 625.443 603.99C625.443 604.97 625.643 605.84 626.043 606.6C626.463 607.36 627.013 607.95 627.693 608.37C628.393 608.79 629.163 609 630.003 609C630.843 609 631.603 608.79 632.283 608.37C632.983 607.95 633.533 607.36 633.933 606.6C634.353 605.84 634.563 604.97 634.563 603.99ZM649.751 595.65C651.791 595.65 653.201 596.26 653.981 597.48C654.761 598.68 655.151 600.35 655.151 602.49V610.17C655.151 610.69 654.981 611.13 654.641 611.49C654.301 611.83 653.871 612 653.351 612C652.831 612 652.401 611.83 652.061 611.49C651.721 611.13 651.551 610.69 651.551 610.17V602.49C651.551 601.39 651.321 600.53 650.861 599.91C650.401 599.27 649.611 598.95 648.491 598.95C647.331 598.95 646.421 599.29 645.761 599.97C645.101 600.63 644.771 601.47 644.771 602.49V610.17C644.771 610.69 644.601 611.13 644.261 611.49C643.921 611.83 643.491 612 642.971 612C642.451 612 642.021 611.83 641.681 611.49C641.341 611.13 641.171 610.69 641.171 610.17V597.78C641.171 597.26 641.341 596.83 641.681 596.49C642.021 596.13 642.451 595.95 642.971 595.95C643.491 595.95 643.921 596.13 644.261 596.49C644.601 596.83 644.771 597.26 644.771 597.78V598.29C645.311 597.57 646.011 596.95 646.871 596.43C647.751 595.91 648.711 595.65 649.751 595.65ZM675.19 608.61C675.47 608.61 675.72 608.75 675.94 609.03C676.18 609.29 676.3 609.64 676.3 610.08C676.3 610.62 676 611.08 675.4 611.46C674.82 611.82 674.16 612 673.42 612C672.18 612 671.13 611.74 670.27 611.22C669.43 610.68 669.01 609.55 669.01 607.83V599.55H667.63C667.15 599.55 666.75 599.39 666.43 599.07C666.11 598.75 665.95 598.35 665.95 597.87C665.95 597.41 666.11 597.03 666.43 596.73C666.75 596.41 667.15 596.25 667.63 596.25H669.01V594.33C669.01 593.81 669.18 593.38 669.52 593.04C669.88 592.68 670.32 592.5 670.84 592.5C671.34 592.5 671.76 592.68 672.1 593.04C672.44 593.38 672.61 593.81 672.61 594.33V596.25H674.74C675.22 596.25 675.62 596.41 675.94 596.73C676.26 597.05 676.42 597.45 676.42 597.93C676.42 598.39 676.26 598.78 675.94 599.1C675.62 599.4 675.22 599.55 674.74 599.55H672.61V607.68C672.61 608.1 672.72 608.41 672.94 608.61C673.16 608.79 673.46 608.88 673.84 608.88C674 608.88 674.22 608.84 674.5 608.76C674.74 608.66 674.97 608.61 675.19 608.61ZM694.999 603.99C694.999 605.59 694.639 607.03 693.919 608.31C693.199 609.57 692.209 610.55 690.949 611.25C689.709 611.95 688.339 612.3 686.839 612.3C685.319 612.3 683.939 611.95 682.699 611.25C681.459 610.55 680.479 609.57 679.759 608.31C679.039 607.03 678.679 605.59 678.679 603.99C678.679 602.39 679.039 600.96 679.759 599.7C680.479 598.42 681.459 597.43 682.699 596.73C683.939 596.01 685.319 595.65 686.839 595.65C688.339 595.65 689.709 596.01 690.949 596.73C692.209 597.43 693.199 598.42 693.919 599.7C694.639 600.96 694.999 602.39 694.999 603.99ZM691.399 603.99C691.399 603.01 691.189 602.14 690.769 601.38C690.369 600.6 689.819 600 689.119 599.58C688.439 599.16 687.679 598.95 686.839 598.95C685.999 598.95 685.229 599.16 684.529 599.58C683.849 600 683.299 600.6 682.879 601.38C682.479 602.14 682.279 603.01 682.279 603.99C682.279 604.97 682.479 605.84 682.879 606.6C683.299 607.36 683.849 607.95 684.529 608.37C685.229 608.79 685.999 609 686.839 609C687.679 609 688.439 608.79 689.119 608.37C689.819 607.95 690.369 607.36 690.769 606.6C691.189 605.84 691.399 604.97 691.399 603.99ZM710.315 610.17C710.315 610.69 710.135 611.13 709.775 611.49C709.435 611.83 709.005 612 708.485 612C707.985 612 707.565 611.83 707.225 611.49C706.885 611.13 706.715 610.69 706.715 610.17V591.63C706.715 591.11 706.885 590.68 707.225 590.34C707.585 589.98 708.025 589.8 708.545 589.8C709.045 589.8 709.465 589.98 709.805 590.34C710.145 590.68 710.315 591.11 710.315 591.63V610.17ZM727.491 595.65C728.011 595.65 728.441 595.82 728.781 596.16C729.121 596.5 729.291 596.94 729.291 597.48V610.17C729.291 610.69 729.121 611.13 728.781 611.49C728.441 611.83 728.011 612 727.491 612C726.971 612 726.541 611.83 726.201 611.49C725.881 611.15 725.711 610.72 725.691 610.2C725.191 610.78 724.511 611.28 723.651 611.7C722.811 612.1 721.921 612.3 720.981 612.3C719.601 612.3 718.351 611.95 717.231 611.25C716.111 610.53 715.221 609.54 714.561 608.28C713.921 607.02 713.601 605.59 713.601 603.99C713.601 602.39 713.921 600.96 714.561 599.7C715.201 598.42 716.071 597.43 717.171 596.73C718.291 596.01 719.521 595.65 720.861 595.65C721.821 595.65 722.721 595.83 723.561 596.19C724.401 596.53 725.111 596.97 725.691 597.51V597.48C725.691 596.96 725.861 596.53 726.201 596.19C726.541 595.83 726.971 595.65 727.491 595.65ZM721.431 609C722.731 609 723.791 608.53 724.611 607.59C725.431 606.63 725.841 605.43 725.841 603.99C725.841 602.55 725.431 601.35 724.611 600.39C723.791 599.43 722.731 598.95 721.431 598.95C720.151 598.95 719.101 599.43 718.281 600.39C717.461 601.35 717.051 602.55 717.051 603.99C717.051 605.43 717.451 606.63 718.251 607.59C719.071 608.53 720.131 609 721.431 609ZM744.809 595.95C745.329 595.95 745.759 596.13 746.099 596.49C746.439 596.83 746.609 597.26 746.609 597.78V605.4C746.609 607.56 746.009 609.25 744.809 610.47C743.629 611.69 741.939 612.3 739.739 612.3C737.539 612.3 735.849 611.69 734.669 610.47C733.489 609.25 732.899 607.56 732.899 605.4V597.78C732.899 597.26 733.069 596.83 733.409 596.49C733.749 596.13 734.179 595.95 734.699 595.95C735.219 595.95 735.649 596.13 735.989 596.49C736.329 596.83 736.499 597.26 736.499 597.78V605.4C736.499 606.62 736.769 607.53 737.309 608.13C737.849 608.71 738.659 609 739.739 609C740.839 609 741.659 608.71 742.199 608.13C742.739 607.53 743.009 606.62 743.009 605.4V597.78C743.009 597.26 743.179 596.83 743.519 596.49C743.859 596.13 744.289 595.95 744.809 595.95ZM759.087 595.65C761.127 595.65 762.537 596.26 763.317 597.48C764.097 598.68 764.487 600.35 764.487 602.49V610.17C764.487 610.69 764.317 611.13 763.977 611.49C763.637 611.83 763.207 612 762.687 612C762.167 612 761.737 611.83 761.397 611.49C761.057 611.13 760.887 610.69 760.887 610.17V602.49C760.887 601.39 760.657 600.53 760.197 599.91C759.737 599.27 758.947 598.95 757.827 598.95C756.667 598.95 755.757 599.29 755.097 599.97C754.437 600.63 754.107 601.47 754.107 602.49V610.17C754.107 610.69 753.937 611.13 753.597 611.49C753.257 611.83 752.827 612 752.307 612C751.787 612 751.357 611.83 751.017 611.49C750.677 611.13 750.507 610.69 750.507 610.17V597.78C750.507 597.26 750.677 596.83 751.017 596.49C751.357 596.13 751.787 595.95 752.307 595.95C752.827 595.95 753.257 596.13 753.597 596.49C753.937 596.83 754.107 597.26 754.107 597.78V598.29C754.647 597.57 755.347 596.95 756.207 596.43C757.087 595.91 758.047 595.65 759.087 595.65ZM775.368 595.65C777.068 595.65 778.438 595.92 779.478 596.46C780.518 596.98 781.038 597.68 781.038 598.56C781.038 599 780.908 599.39 780.648 599.73C780.388 600.05 780.048 600.21 779.628 600.21C779.308 600.21 779.048 600.17 778.848 600.09C778.648 599.99 778.448 599.87 778.248 599.73C778.068 599.57 777.888 599.44 777.708 599.34C777.508 599.24 777.208 599.15 776.808 599.07C776.428 598.99 776.118 598.95 775.878 598.95C774.378 598.95 773.198 599.42 772.338 600.36C771.498 601.28 771.078 602.49 771.078 603.99C771.078 605.43 771.508 606.63 772.368 607.59C773.228 608.53 774.328 609 775.668 609C776.648 609 777.378 608.88 777.858 608.64C777.978 608.58 778.138 608.48 778.338 608.34C778.558 608.18 778.758 608.06 778.938 607.98C779.118 607.9 779.338 607.86 779.598 607.86C780.098 607.86 780.488 608.02 780.768 608.34C781.068 608.66 781.218 609.07 781.218 609.57C781.218 610.05 780.938 610.5 780.378 610.92C779.818 611.34 779.078 611.68 778.158 611.94C777.238 612.18 776.258 612.3 775.218 612.3C773.678 612.3 772.318 611.94 771.138 611.22C769.978 610.5 769.078 609.51 768.438 608.25C767.798 606.97 767.478 605.55 767.478 603.99C767.478 602.37 767.808 600.93 768.468 599.67C769.148 598.41 770.088 597.43 771.288 596.73C772.488 596.01 773.848 595.65 775.368 595.65ZM792.247 595.65C794.227 595.65 795.597 596.26 796.357 597.48C797.117 598.68 797.497 600.35 797.497 602.49V610.17C797.497 610.69 797.327 611.13 796.987 611.49C796.647 611.83 796.217 612 795.697 612C795.177 612 794.747 611.83 794.407 611.49C794.067 611.13 793.897 610.69 793.897 610.17V602.49C793.897 601.39 793.677 600.53 793.237 599.91C792.817 599.27 792.067 598.95 790.987 598.95C789.867 598.95 788.987 599.29 788.347 599.97C787.727 600.63 787.417 601.47 787.417 602.49V610.17C787.417 610.69 787.247 611.13 786.907 611.49C786.567 611.83 786.137 612 785.617 612C785.097 612 784.667 611.83 784.327 611.49C783.987 611.13 783.817 610.69 783.817 610.17V591.63C783.817 591.11 783.987 590.68 784.327 590.34C784.667 589.98 785.097 589.8 785.617 589.8C786.137 589.8 786.567 589.98 786.907 590.34C787.247 590.68 787.417 591.11 787.417 591.63V598.26C787.957 597.54 788.637 596.93 789.457 596.43C790.297 595.91 791.227 595.65 792.247 595.65ZM821.714 595.95C822.234 595.95 822.664 596.13 823.004 596.49C823.344 596.83 823.514 597.26 823.514 597.78V610.53C823.514 613.13 822.814 615.02 821.414 616.2C820.014 617.4 818.144 618 815.804 618C815.124 618 814.424 617.94 813.704 617.82C813.004 617.72 812.434 617.58 811.994 617.4C811.014 616.98 810.524 616.4 810.524 615.66C810.524 615.52 810.554 615.36 810.614 615.18C810.734 614.74 810.934 614.4 811.214 614.16C811.514 613.94 811.834 613.83 812.174 613.83C812.374 613.83 812.564 613.86 812.744 613.92C812.884 613.98 813.124 614.08 813.464 614.22C813.824 614.36 814.194 614.47 814.574 614.55C814.974 614.65 815.384 614.7 815.804 614.7C817.224 614.7 818.264 614.39 818.924 613.77C819.604 613.17 819.944 612.13 819.944 610.65V610.35C818.904 611.65 817.284 612.3 815.084 612.3C814.044 612.3 813.124 612.06 812.324 611.58C811.524 611.08 810.904 610.4 810.464 609.54C810.024 608.66 809.804 607.66 809.804 606.54V597.78C809.804 597.26 809.974 596.83 810.314 596.49C810.654 596.13 811.084 595.95 811.604 595.95C812.124 595.95 812.554 596.13 812.894 596.49C813.234 596.83 813.404 597.26 813.404 597.78V605.46C813.404 606.72 813.674 607.63 814.214 608.19C814.774 608.73 815.584 609 816.644 609C817.684 609 818.484 608.7 819.044 608.1C819.624 607.48 819.914 606.6 819.914 605.46V597.78C819.914 597.26 820.084 596.83 820.424 596.49C820.764 596.13 821.194 595.95 821.714 595.95ZM842.684 603.99C842.684 605.59 842.324 607.03 841.604 608.31C840.884 609.57 839.894 610.55 838.634 611.25C837.394 611.95 836.024 612.3 834.524 612.3C833.004 612.3 831.624 611.95 830.384 611.25C829.144 610.55 828.164 609.57 827.444 608.31C826.724 607.03 826.364 605.59 826.364 603.99C826.364 602.39 826.724 600.96 827.444 599.7C828.164 598.42 829.144 597.43 830.384 596.73C831.624 596.01 833.004 595.65 834.524 595.65C836.024 595.65 837.394 596.01 838.634 596.73C839.894 597.43 840.884 598.42 841.604 599.7C842.324 600.96 842.684 602.39 842.684 603.99ZM839.084 603.99C839.084 603.01 838.874 602.14 838.454 601.38C838.054 600.6 837.504 600 836.804 599.58C836.124 599.16 835.364 598.95 834.524 598.95C833.684 598.95 832.914 599.16 832.214 599.58C831.534 600 830.984 600.6 830.564 601.38C830.164 602.14 829.964 603.01 829.964 603.99C829.964 604.97 830.164 605.84 830.564 606.6C830.984 607.36 831.534 607.95 832.214 608.37C832.914 608.79 833.684 609 834.524 609C835.364 609 836.124 608.79 836.804 608.37C837.504 607.95 838.054 607.36 838.454 606.6C838.874 605.84 839.084 604.97 839.084 603.99ZM857.602 595.95C858.122 595.95 858.552 596.13 858.892 596.49C859.232 596.83 859.402 597.26 859.402 597.78V605.4C859.402 607.56 858.802 609.25 857.602 610.47C856.422 611.69 854.732 612.3 852.532 612.3C850.332 612.3 848.642 611.69 847.462 610.47C846.282 609.25 845.692 607.56 845.692 605.4V597.78C845.692 597.26 845.862 596.83 846.202 596.49C846.542 596.13 846.972 595.95 847.492 595.95C848.012 595.95 848.442 596.13 848.782 596.49C849.122 596.83 849.292 597.26 849.292 597.78V605.4C849.292 606.62 849.562 607.53 850.102 608.13C850.642 608.71 851.452 609 852.532 609C853.632 609 854.452 608.71 854.992 608.13C855.532 607.53 855.802 606.62 855.802 605.4V597.78C855.802 597.26 855.972 596.83 856.312 596.49C856.652 596.13 857.082 595.95 857.602 595.95ZM871.64 595.65C872.24 595.65 872.74 595.82 873.14 596.16C873.56 596.5 873.77 596.9 873.77 597.36C873.77 597.98 873.61 598.45 873.29 598.77C872.97 599.07 872.59 599.22 872.15 599.22C871.85 599.22 871.51 599.15 871.13 599.01C871.07 598.99 870.93 598.95 870.71 598.89C870.51 598.83 870.29 598.8 870.05 598.8C869.53 598.8 869.03 598.96 868.55 599.28C868.07 599.6 867.67 600.09 867.35 600.75C867.05 601.39 866.9 602.16 866.9 603.06V610.17C866.9 610.69 866.73 611.13 866.39 611.49C866.05 611.83 865.62 612 865.1 612C864.58 612 864.15 611.83 863.81 611.49C863.47 611.13 863.3 610.69 863.3 610.17V597.78C863.3 597.26 863.47 596.83 863.81 596.49C864.15 596.13 864.58 595.95 865.1 595.95C865.62 595.95 866.05 596.13 866.39 596.49C866.73 596.83 866.9 597.26 866.9 597.78V598.17C867.36 597.35 868.02 596.73 868.88 596.31C869.74 595.87 870.66 595.65 871.64 595.65ZM900.136 603.99C900.136 605.59 899.776 607.03 899.056 608.31C898.336 609.57 897.346 610.55 896.086 611.25C894.846 611.95 893.476 612.3 891.976 612.3C890.456 612.3 889.076 611.95 887.836 611.25C886.596 610.55 885.616 609.57 884.896 608.31C884.176 607.03 883.816 605.59 883.816 603.99C883.816 602.39 884.176 600.96 884.896 599.7C885.616 598.42 886.596 597.43 887.836 596.73C889.076 596.01 890.456 595.65 891.976 595.65C893.476 595.65 894.846 596.01 896.086 596.73C897.346 597.43 898.336 598.42 899.056 599.7C899.776 600.96 900.136 602.39 900.136 603.99ZM896.536 603.99C896.536 603.01 896.326 602.14 895.906 601.38C895.506 600.6 894.956 600 894.256 599.58C893.576 599.16 892.816 598.95 891.976 598.95C891.136 598.95 890.366 599.16 889.666 599.58C888.986 600 888.436 600.6 888.016 601.38C887.616 602.14 887.416 603.01 887.416 603.99C887.416 604.97 887.616 605.84 888.016 606.6C888.436 607.36 888.986 607.95 889.666 608.37C890.366 608.79 891.136 609 891.976 609C892.816 609 893.576 608.79 894.256 608.37C894.956 607.95 895.506 607.36 895.906 606.6C896.326 605.84 896.536 604.97 896.536 603.99ZM921.623 595.95C922.103 595.95 922.503 596.13 922.823 596.49C923.163 596.83 923.333 597.27 923.333 597.81C923.333 597.99 923.293 598.22 923.213 598.5L918.623 610.86C918.503 611.22 918.283 611.51 917.963 611.73C917.663 611.93 917.333 612.03 916.973 612.03L916.733 612C916.053 611.96 915.543 611.58 915.203 610.86L912.653 603.48L910.223 610.86C909.883 611.58 909.373 611.96 908.693 612L908.453 612.03C908.093 612.03 907.753 611.93 907.433 611.73C907.133 611.51 906.923 611.22 906.803 610.86L902.213 598.5C902.133 598.28 902.093 598.05 902.093 597.81C902.093 597.31 902.253 596.88 902.573 596.52C902.913 596.14 903.353 595.95 903.893 595.95C904.293 595.95 904.633 596.05 904.913 596.25C905.213 596.43 905.423 596.71 905.543 597.09L908.783 605.88L911.153 599.46C911.473 598.72 912.023 598.35 912.803 598.35C913.223 598.35 913.543 598.44 913.763 598.62C914.003 598.8 914.203 599.08 914.363 599.46L916.673 605.73L919.883 597.09C920.003 596.71 920.213 596.43 920.513 596.25C920.813 596.05 921.183 595.95 921.623 595.95ZM934.751 595.65C936.791 595.65 938.201 596.26 938.981 597.48C939.761 598.68 940.151 600.35 940.151 602.49V610.17C940.151 610.69 939.981 611.13 939.641 611.49C939.301 611.83 938.871 612 938.351 612C937.831 612 937.401 611.83 937.061 611.49C936.721 611.13 936.551 610.69 936.551 610.17V602.49C936.551 601.39 936.321 600.53 935.861 599.91C935.401 599.27 934.611 598.95 933.491 598.95C932.331 598.95 931.421 599.29 930.761 599.97C930.101 600.63 929.771 601.47 929.771 602.49V610.17C929.771 610.69 929.601 611.13 929.261 611.49C928.921 611.83 928.491 612 927.971 612C927.451 612 927.021 611.83 926.681 611.49C926.341 611.13 926.171 610.69 926.171 610.17V597.78C926.171 597.26 926.341 596.83 926.681 596.49C927.021 596.13 927.451 595.95 927.971 595.95C928.491 595.95 928.921 596.13 929.261 596.49C929.601 596.83 929.771 597.26 929.771 597.78V598.29C930.311 597.57 931.011 596.95 931.871 596.43C932.751 595.91 933.711 595.65 934.751 595.65ZM964.78 595.98C965.26 595.98 965.66 596.14 965.98 596.46C966.3 596.76 966.46 597.14 966.46 597.6C966.46 597.84 966.38 598.14 966.22 598.5L960.61 610.86C960.47 611.2 960.26 611.47 959.98 611.67C959.72 611.87 959.42 611.98 959.08 612L958.81 612.03C958.47 612.03 958.15 611.93 957.85 611.73C957.57 611.51 957.35 611.22 957.19 610.86L951.61 598.5C951.47 598.18 951.4 597.86 951.4 597.54C951.4 597.14 951.57 596.78 951.91 596.46C952.25 596.12 952.67 595.95 953.17 595.95C953.55 595.95 953.9 596.05 954.22 596.25C954.54 596.45 954.78 596.73 954.94 597.09L959.08 606.57L963.19 597.12C963.35 596.74 963.57 596.45 963.85 596.25C964.13 596.05 964.44 595.96 964.78 595.98ZM972.686 610.17C972.686 610.69 972.516 611.13 972.176 611.49C971.836 611.83 971.406 612 970.886 612C970.366 612 969.936 611.83 969.596 611.49C969.256 611.13 969.086 610.69 969.086 610.17V597.78C969.086 597.26 969.256 596.83 969.596 596.49C969.936 596.13 970.366 595.95 970.886 595.95C971.406 595.95 971.836 596.13 972.176 596.49C972.516 596.83 972.686 597.26 972.686 597.78V610.17ZM970.856 594C970.176 594 969.696 593.89 969.416 593.67C969.136 593.45 968.996 593.06 968.996 592.5V591.93C968.996 591.37 969.146 590.98 969.446 590.76C969.746 590.54 970.226 590.43 970.886 590.43C971.586 590.43 972.076 590.54 972.356 590.76C972.636 590.98 972.776 591.37 972.776 591.93V592.5C972.776 593.08 972.626 593.48 972.326 593.7C972.046 593.9 971.556 594 970.856 594ZM984.726 595.65C985.326 595.65 985.826 595.82 986.226 596.16C986.646 596.5 986.856 596.9 986.856 597.36C986.856 597.98 986.696 598.45 986.376 598.77C986.056 599.07 985.676 599.22 985.236 599.22C984.936 599.22 984.596 599.15 984.216 599.01C984.156 598.99 984.016 598.95 983.796 598.89C983.596 598.83 983.376 598.8 983.136 598.8C982.616 598.8 982.116 598.96 981.636 599.28C981.156 599.6 980.756 600.09 980.436 600.75C980.136 601.39 979.986 602.16 979.986 603.06V610.17C979.986 610.69 979.816 611.13 979.476 611.49C979.136 611.83 978.706 612 978.186 612C977.666 612 977.236 611.83 976.896 611.49C976.556 611.13 976.386 610.69 976.386 610.17V597.78C976.386 597.26 976.556 596.83 976.896 596.49C977.236 596.13 977.666 595.95 978.186 595.95C978.706 595.95 979.136 596.13 979.476 596.49C979.816 596.83 979.986 597.26 979.986 597.78V598.17C980.446 597.35 981.106 596.73 981.966 596.31C982.826 595.87 983.746 595.65 984.726 595.65ZM997.133 608.61C997.413 608.61 997.663 608.75 997.883 609.03C998.123 609.29 998.243 609.64 998.243 610.08C998.243 610.62 997.943 611.08 997.343 611.46C996.763 611.82 996.103 612 995.363 612C994.123 612 993.073 611.74 992.213 611.22C991.373 610.68 990.953 609.55 990.953 607.83V599.55H989.573C989.093 599.55 988.693 599.39 988.373 599.07C988.053 598.75 987.893 598.35 987.893 597.87C987.893 597.41 988.053 597.03 988.373 596.73C988.693 596.41 989.093 596.25 989.573 596.25H990.953V594.33C990.953 593.81 991.123 593.38 991.463 593.04C991.823 592.68 992.263 592.5 992.783 592.5C993.283 592.5 993.703 592.68 994.043 593.04C994.383 593.38 994.553 593.81 994.553 594.33V596.25H996.683C997.163 596.25 997.563 596.41 997.883 596.73C998.203 597.05 998.363 597.45 998.363 597.93C998.363 598.39 998.203 598.78 997.883 599.1C997.563 599.4 997.163 599.55 996.683 599.55H994.553V607.68C994.553 608.1 994.663 608.41 994.883 608.61C995.103 608.79 995.403 608.88 995.783 608.88C995.943 608.88 996.163 608.84 996.443 608.76C996.683 608.66 996.913 608.61 997.133 608.61ZM1013.58 595.95C1014.1 595.95 1014.53 596.13 1014.87 596.49C1015.21 596.83 1015.38 597.26 1015.38 597.78V605.4C1015.38 607.56 1014.78 609.25 1013.58 610.47C1012.4 611.69 1010.71 612.3 1008.51 612.3C1006.31 612.3 1004.62 611.69 1003.44 610.47C1002.26 609.25 1001.67 607.56 1001.67 605.4V597.78C1001.67 597.26 1001.84 596.83 1002.18 596.49C1002.52 596.13 1002.95 595.95 1003.47 595.95C1003.99 595.95 1004.42 596.13 1004.76 596.49C1005.1 596.83 1005.27 597.26 1005.27 597.78V605.4C1005.27 606.62 1005.54 607.53 1006.08 608.13C1006.62 608.71 1007.43 609 1008.51 609C1009.61 609 1010.43 608.71 1010.97 608.13C1011.51 607.53 1011.78 606.62 1011.78 605.4V597.78C1011.78 597.26 1011.95 596.83 1012.29 596.49C1012.63 596.13 1013.06 595.95 1013.58 595.95ZM1032.27 595.65C1032.79 595.65 1033.22 595.82 1033.56 596.16C1033.9 596.5 1034.07 596.94 1034.07 597.48V610.17C1034.07 610.69 1033.9 611.13 1033.56 611.49C1033.22 611.83 1032.79 612 1032.27 612C1031.75 612 1031.32 611.83 1030.98 611.49C1030.66 611.15 1030.49 610.72 1030.47 610.2C1029.97 610.78 1029.29 611.28 1028.43 611.7C1027.59 612.1 1026.7 612.3 1025.76 612.3C1024.38 612.3 1023.13 611.95 1022.01 611.25C1020.89 610.53 1020 609.54 1019.34 608.28C1018.7 607.02 1018.38 605.59 1018.38 603.99C1018.38 602.39 1018.7 600.96 1019.34 599.7C1019.98 598.42 1020.85 597.43 1021.95 596.73C1023.07 596.01 1024.3 595.65 1025.64 595.65C1026.6 595.65 1027.5 595.83 1028.34 596.19C1029.18 596.53 1029.89 596.97 1030.47 597.51V597.48C1030.47 596.96 1030.64 596.53 1030.98 596.19C1031.32 595.83 1031.75 595.65 1032.27 595.65ZM1026.21 609C1027.51 609 1028.57 608.53 1029.39 607.59C1030.21 606.63 1030.62 605.43 1030.62 603.99C1030.62 602.55 1030.21 601.35 1029.39 600.39C1028.57 599.43 1027.51 598.95 1026.21 598.95C1024.93 598.95 1023.88 599.43 1023.06 600.39C1022.24 601.35 1021.83 602.55 1021.83 603.99C1021.83 605.43 1022.23 606.63 1023.03 607.59C1023.85 608.53 1024.91 609 1026.21 609ZM1041.87 610.17C1041.87 610.69 1041.69 611.13 1041.33 611.49C1040.99 611.83 1040.56 612 1040.04 612C1039.54 612 1039.12 611.83 1038.78 611.49C1038.44 611.13 1038.27 610.69 1038.27 610.17V591.63C1038.27 591.11 1038.44 590.68 1038.78 590.34C1039.14 589.98 1039.58 589.8 1040.1 589.8C1040.6 589.8 1041.02 589.98 1041.36 590.34C1041.7 590.68 1041.87 591.11 1041.87 591.63V610.17ZM1062.8 595.65C1063.4 595.65 1063.9 595.82 1064.3 596.16C1064.72 596.5 1064.93 596.9 1064.93 597.36C1064.93 597.98 1064.77 598.45 1064.45 598.77C1064.13 599.07 1063.75 599.22 1063.31 599.22C1063.01 599.22 1062.67 599.15 1062.29 599.01C1062.23 598.99 1062.09 598.95 1061.87 598.89C1061.67 598.83 1061.45 598.8 1061.21 598.8C1060.69 598.8 1060.19 598.96 1059.71 599.28C1059.23 599.6 1058.83 600.09 1058.51 600.75C1058.21 601.39 1058.06 602.16 1058.06 603.06V610.17C1058.06 610.69 1057.89 611.13 1057.55 611.49C1057.21 611.83 1056.78 612 1056.26 612C1055.74 612 1055.31 611.83 1054.97 611.49C1054.63 611.13 1054.46 610.69 1054.46 610.17V597.78C1054.46 597.26 1054.63 596.83 1054.97 596.49C1055.31 596.13 1055.74 595.95 1056.26 595.95C1056.78 595.95 1057.21 596.13 1057.55 596.49C1057.89 596.83 1058.06 597.26 1058.06 597.78V598.17C1058.52 597.35 1059.18 596.73 1060.04 596.31C1060.9 595.87 1061.82 595.65 1062.8 595.65ZM1082.22 603.99C1082.22 605.59 1081.86 607.03 1081.14 608.31C1080.42 609.57 1079.43 610.55 1078.17 611.25C1076.93 611.95 1075.56 612.3 1074.06 612.3C1072.54 612.3 1071.16 611.95 1069.92 611.25C1068.68 610.55 1067.7 609.57 1066.98 608.31C1066.26 607.03 1065.9 605.59 1065.9 603.99C1065.9 602.39 1066.26 600.96 1066.98 599.7C1067.7 598.42 1068.68 597.43 1069.92 596.73C1071.16 596.01 1072.54 595.65 1074.06 595.65C1075.56 595.65 1076.93 596.01 1078.17 596.73C1079.43 597.43 1080.42 598.42 1081.14 599.7C1081.86 600.96 1082.22 602.39 1082.22 603.99ZM1078.62 603.99C1078.62 603.01 1078.41 602.14 1077.99 601.38C1077.59 600.6 1077.04 600 1076.34 599.58C1075.66 599.16 1074.9 598.95 1074.06 598.95C1073.22 598.95 1072.45 599.16 1071.75 599.58C1071.07 600 1070.52 600.6 1070.1 601.38C1069.7 602.14 1069.5 603.01 1069.5 603.99C1069.5 604.97 1069.7 605.84 1070.1 606.6C1070.52 607.36 1071.07 607.95 1071.75 608.37C1072.45 608.79 1073.22 609 1074.06 609C1074.9 609 1075.66 608.79 1076.34 608.37C1077.04 607.95 1077.59 607.36 1077.99 606.6C1078.41 605.84 1078.62 604.97 1078.62 603.99ZM1100.64 603.99C1100.64 605.59 1100.28 607.03 1099.56 608.31C1098.84 609.57 1097.85 610.55 1096.59 611.25C1095.35 611.95 1093.98 612.3 1092.48 612.3C1090.96 612.3 1089.58 611.95 1088.34 611.25C1087.1 610.55 1086.12 609.57 1085.4 608.31C1084.68 607.03 1084.32 605.59 1084.32 603.99C1084.32 602.39 1084.68 600.96 1085.4 599.7C1086.12 598.42 1087.1 597.43 1088.34 596.73C1089.58 596.01 1090.96 595.65 1092.48 595.65C1093.98 595.65 1095.35 596.01 1096.59 596.73C1097.85 597.43 1098.84 598.42 1099.56 599.7C1100.28 600.96 1100.64 602.39 1100.64 603.99ZM1097.04 603.99C1097.04 603.01 1096.83 602.14 1096.41 601.38C1096.01 600.6 1095.46 600 1094.76 599.58C1094.08 599.16 1093.32 598.95 1092.48 598.95C1091.64 598.95 1090.87 599.16 1090.17 599.58C1089.49 600 1088.94 600.6 1088.52 601.38C1088.12 602.14 1087.92 603.01 1087.92 603.99C1087.92 604.97 1088.12 605.84 1088.52 606.6C1088.94 607.36 1089.49 607.95 1090.17 608.37C1090.87 608.79 1091.64 609 1092.48 609C1093.32 609 1094.08 608.79 1094.76 608.37C1095.46 607.95 1096.01 607.36 1096.41 606.6C1096.83 605.84 1097.04 604.97 1097.04 603.99ZM1122.16 595.65C1124.14 595.65 1125.51 596.26 1126.27 597.48C1127.03 598.68 1127.41 600.35 1127.41 602.49V610.17C1127.41 610.69 1127.24 611.13 1126.9 611.49C1126.56 611.83 1126.13 612 1125.61 612C1125.09 612 1124.66 611.83 1124.32 611.49C1123.98 611.13 1123.81 610.69 1123.81 610.17V602.49C1123.81 601.39 1123.59 600.53 1123.15 599.91C1122.73 599.27 1121.98 598.95 1120.9 598.95C1119.78 598.95 1118.9 599.29 1118.26 599.97C1117.64 600.63 1117.33 601.47 1117.33 602.49V610.17C1117.33 610.69 1117.16 611.13 1116.82 611.49C1116.48 611.83 1116.05 612 1115.53 612C1115.01 612 1114.58 611.83 1114.24 611.49C1113.9 611.13 1113.73 610.69 1113.73 610.17V602.49C1113.73 601.39 1113.51 600.53 1113.07 599.91C1112.65 599.27 1111.9 598.95 1110.82 598.95C1109.7 598.95 1108.82 599.29 1108.18 599.97C1107.56 600.63 1107.25 601.47 1107.25 602.49V610.17C1107.25 610.69 1107.08 611.13 1106.74 611.49C1106.4 611.83 1105.97 612 1105.45 612C1104.93 612 1104.5 611.83 1104.16 611.49C1103.82 611.13 1103.65 610.69 1103.65 610.17V597.78C1103.65 597.26 1103.82 596.83 1104.16 596.49C1104.5 596.13 1104.93 595.95 1105.45 595.95C1105.97 595.95 1106.4 596.13 1106.74 596.49C1107.08 596.83 1107.25 597.26 1107.25 597.78V598.26C1107.79 597.54 1108.47 596.93 1109.29 596.43C1110.13 595.91 1111.06 595.65 1112.08 595.65C1114.6 595.65 1116.21 596.75 1116.91 598.95C1117.37 598.11 1118.06 597.35 1118.98 596.67C1119.92 595.99 1120.98 595.65 1122.16 595.65ZM1132.9 611.97C1132.32 611.97 1131.87 611.82 1131.55 611.52C1131.25 611.2 1131.1 610.75 1131.1 610.17V609.66C1131.1 609.08 1131.25 608.64 1131.55 608.34C1131.87 608.02 1132.32 607.86 1132.9 607.86H1133.29C1133.87 607.86 1134.31 608.02 1134.61 608.34C1134.93 608.64 1135.09 609.08 1135.09 609.66V610.17C1135.09 610.75 1134.93 611.2 1134.61 611.52C1134.31 611.82 1133.87 611.97 1133.29 611.97H1132.9Z" fill="white"/>
<defs>
<filter id="filter0_d" x="371.603" y="101.817" width="194.823" height="214.313" filterUnits="userSpaceOnUse" color-interpolation-filters="sRGB">
<feFlood flood-opacity="0" result="BackgroundImageFix"/>
<feColorMatrix in="SourceAlpha" type="matrix" values="0 0 0 0 0 0 0 0 0 0 0 0 0 0 0 0 0 0 127 0"/>
<feOffset dy="4"/>
<feGaussianBlur stdDeviation="2"/>
<feColorMatrix type="matrix" values="0 0 0 0 0 0 0 0 0 0 0 0 0 0 0 0 0 0 0.25 0"/>
<feBlend mode="normal" in2="BackgroundImageFix" result="effect1_dropShadow"/>
<feBlend mode="normal" in="SourceGraphic" in2="effect1_dropShadow" result="shape"/>
</filter>
<filter id="filter1_d" x="1066.87" y="272.102" width="205.359" height="199.603" filterUnits="userSpaceOnUse" color-interpolation-filters="sRGB">
<feFlood flood-opacity="0" result="BackgroundImageFix"/>
<feColorMatrix in="SourceAlpha" type="matrix" values="0 0 0 0 0 0 0 0 0 0 0 0 0 0 0 0 0 0 127 0"/>
<feOffset dy="4"/>
<feGaussianBlur stdDeviation="2"/>
<feColorMatrix type="matrix" values="0 0 0 0 0 0 0 0 0 0 0 0 0 0 0 0 0 0 0.25 0"/>
<feBlend mode="normal" in2="BackgroundImageFix" result="effect1_dropShadow"/>
<feBlend mode="normal" in="SourceGraphic" in2="effect1_dropShadow" result="shape"/>
</filter>
<filter id="filter2_d" x="1190.88" y="144.68" width="94.1111" height="95.9961" filterUnits="userSpaceOnUse" color-interpolation-filters="sRGB">
<feFlood flood-opacity="0" result="BackgroundImageFix"/>
<feColorMatrix in="SourceAlpha" type="matrix" values="0 0 0 0 0 0 0 0 0 0 0 0 0 0 0 0 0 0 127 0"/>
<feOffset dy="4"/>
<feGaussianBlur stdDeviation="2"/>
<feColorMatrix type="matrix" values="0 0 0 0 0 0 0 0 0 0 0 0 0 0 0 0 0 0 0.25 0"/>
<feBlend mode="normal" in2="BackgroundImageFix" result="effect1_dropShadow"/>
<feBlend mode="normal" in="SourceGraphic" in2="effect1_dropShadow" result="shape"/>
</filter>
<filter id="filter3_d" x="914.12" y="233.239" width="90.634" height="87.4472" filterUnits="userSpaceOnUse" color-interpolation-filters="sRGB">
<feFlood flood-opacity="0" result="BackgroundImageFix"/>
<feColorMatrix in="SourceAlpha" type="matrix" values="0 0 0 0 0 0 0 0 0 0 0 0 0 0 0 0 0 0 127 0"/>
<feOffset dy="4"/>
<feGaussianBlur stdDeviation="2"/>
<feColorMatrix type="matrix" values="0 0 0 0 0 0 0 0 0 0 0 0 0 0 0 0 0 0 0.25 0"/>
<feBlend mode="normal" in2="BackgroundImageFix" result="effect1_dropShadow"/>
<feBlend mode="normal" in="SourceGraphic" in2="effect1_dropShadow" result="shape"/>
</filter>
<filter id="filter4_d" x="148.153" y="258.416" width="226.543" height="200.285" filterUnits="userSpaceOnUse" color-interpolation-filters="sRGB">
<feFlood flood-opacity="0" result="BackgroundImageFix"/>
<feColorMatrix in="SourceAlpha" type="matrix" values="0 0 0 0 0 0 0 0 0 0 0 0 0 0 0 0 0 0 127 0"/>
<feOffset dy="4"/>
<feGaussianBlur stdDeviation="2"/>
<feColorMatrix type="matrix" values="0 0 0 0 0 0 0 0 0 0 0 0 0 0 0 0 0 0 0.25 0"/>
<feBlend mode="normal" in2="BackgroundImageFix" result="effect1_dropShadow"/>
<feBlend mode="normal" in="SourceGraphic" in2="effect1_dropShadow" result="shape"/>
</filter>
<linearGradient id="paint0_linear" x1="414.823" y1="231.453" x2="522.644" y2="177.256" gradientUnits="userSpaceOnUse">
<stop stop-color="#FF7A00"/>
<stop offset="1" stop-color="white" stop-opacity="0"/>
</linearGradient>
<linearGradient id="paint1_linear" x1="1144.6" y1="343.267" x2="1192.87" y2="394.794" gradientUnits="userSpaceOnUse">
<stop stop-color="#FB8500"/>
<stop offset="1" stop-color="white" stop-opacity="0"/>
</linearGradient>
<linearGradient id="paint2_linear" x1="1215.05" y1="174.475" x2="1258.63" y2="220.99" gradientUnits="userSpaceOnUse">
<stop stop-color="#FB8500"/>
<stop offset="1" stop-color="white" stop-opacity="0"/>
</linearGradient>
<linearGradient id="paint3_linear" x1="947.952" y1="287.672" x2="972.857" y2="258.328" gradientUnits="userSpaceOnUse">
<stop stop-color="#FB8500"/>
<stop offset="1" stop-color="white" stop-opacity="0"/>
</linearGradient>
<linearGradient id="paint4_linear" x1="283.432" y1="289.876" x2="240.522" y2="419.982" gradientUnits="userSpaceOnUse">
<stop stop-color="#FF7A00"/>
<stop offset="1" stop-color="white" stop-opacity="0"/>
</linearGradient>
</defs>
</svg>
