<svg width="1440" height="604" viewBox="0 0 1440 604" fill="none" xmlns="http://www.w3.org/2000/svg">
<rect width="1440" height="604" fill="#474747"/>
<g filter="url(#filter0_d)">
<path d="M525.468 200.099L416.041 168.866L425.131 67.0038L484.821 37L525.468 200.099Z" stroke="#BDFF01" stroke-width="3"/>
<path d="M525.468 200.099L416.041 168.866L425.131 67.0038L484.821 37L525.468 200.099Z" stroke="url(#paint0_linear)" stroke-width="3"/>
</g>
<g filter="url(#filter1_d)">
<path d="M1123.27 392.061L1123.92 294.7L1260.47 263.527L1123.27 392.061Z" stroke="#BDFF01" stroke-width="4"/>
<path d="M1123.27 392.061L1123.92 294.7L1260.47 263.527L1123.27 392.061Z" stroke="url(#paint1_linear)" stroke-width="4"/>
</g>
<g filter="url(#filter2_d)">
<path d="M1239.58 151.064L1208.87 92.4888L1275.68 137.08L1239.58 151.064Z" stroke="#BDFF01" stroke-width="4"/>
<path d="M1239.58 151.064L1208.87 92.4888L1275.68 137.08L1239.58 151.064Z" stroke="url(#paint2_linear)" stroke-width="4"/>
</g>
<g filter="url(#filter3_d)">
<path d="M995.808 211.655L953.822 226.503L947.905 171L995.808 211.655Z" stroke="#BDFF01" stroke-width="4"/>
<path d="M995.808 211.655L953.822 226.503L947.905 171L995.808 211.655Z" stroke="url(#paint3_linear)" stroke-width="4"/>
</g>
<g filter="url(#filter4_d)">
<path d="M163.642 298.905L261.885 216.099L347.287 310.383L324.044 380.858L163.642 298.905Z" stroke="#BDFF01" stroke-width="4"/>
<path d="M163.642 298.905L261.885 216.099L347.287 310.383L324.044 380.858L163.642 298.905Z" stroke="url(#paint4_linear)" stroke-width="4"/>
</g>
<path d="M576 253.544L713 208V360.093L576 417V253.544Z" stroke="white" stroke-width="15"/>
<path d="M718 205L860 244.919L855.459 408L713 357.438" stroke="white" stroke-width="15"/>
<path d="M571.5 421L721.122 478.5L859.5 411.5" stroke="white" stroke-width="15"/>
<path d="M756 372.847V276L803 291.042V390" stroke="white" stroke-width="15"/>
<path d="M667 276L623 292.406V344L667 328.457V276Z" stroke="white" stroke-width="15"/>
<path d="M313.95 525.02C314.57 525.34 314.88 525.85 314.88 526.55C314.88 526.97 314.73 527.38 314.43 527.78C314.11 528.2 313.7 528.41 313.2 528.41C312.86 528.41 312.52 528.32 312.18 528.14C311.2 527.68 310.14 527.45 309 527.45C307.6 527.45 306.38 527.75 305.34 528.35C304.3 528.93 303.5 529.76 302.94 530.84C302.38 531.9 302.1 533.12 302.1 534.5C302.1 536.86 302.73 538.65 303.99 539.87C305.27 541.09 306.94 541.7 309 541.7C310.22 541.7 311.28 541.47 312.18 541.01C312.54 540.85 312.86 540.77 313.14 540.77C313.66 540.77 314.1 540.99 314.46 541.43C314.76 541.81 314.91 542.22 314.91 542.66C314.91 542.98 314.83 543.27 314.67 543.53C314.51 543.79 314.28 543.99 313.98 544.13C312.42 544.91 310.76 545.3 309 545.3C307.04 545.3 305.24 544.89 303.6 544.07C301.96 543.23 300.65 542 299.67 540.38C298.69 538.76 298.2 536.8 298.2 534.5C298.2 532.46 298.66 530.63 299.58 529.01C300.52 527.39 301.81 526.13 303.45 525.23C305.09 524.31 306.94 523.85 309 523.85C310.78 523.85 312.43 524.24 313.95 525.02ZM321.659 543.17C321.659 543.69 321.479 544.13 321.119 544.49C320.779 544.83 320.349 545 319.829 545C319.329 545 318.909 544.83 318.569 544.49C318.229 544.13 318.059 543.69 318.059 543.17V524.63C318.059 524.11 318.229 523.68 318.569 523.34C318.929 522.98 319.369 522.8 319.889 522.8C320.389 522.8 320.809 522.98 321.149 523.34C321.489 523.68 321.659 524.11 321.659 524.63V543.17ZM329.235 543.17C329.235 543.69 329.065 544.13 328.725 544.49C328.385 544.83 327.955 545 327.435 545C326.915 545 326.485 544.83 326.145 544.49C325.805 544.13 325.635 543.69 325.635 543.17V530.78C325.635 530.26 325.805 529.83 326.145 529.49C326.485 529.13 326.915 528.95 327.435 528.95C327.955 528.95 328.385 529.13 328.725 529.49C329.065 529.83 329.235 530.26 329.235 530.78V543.17ZM327.405 527C326.725 527 326.245 526.89 325.965 526.67C325.685 526.45 325.545 526.06 325.545 525.5V524.93C325.545 524.37 325.695 523.98 325.995 523.76C326.295 523.54 326.775 523.43 327.435 523.43C328.135 523.43 328.625 523.54 328.905 523.76C329.185 523.98 329.325 524.37 329.325 524.93V525.5C329.325 526.08 329.175 526.48 328.875 526.7C328.595 526.9 328.105 527 327.405 527ZM339.924 528.65C341.624 528.65 342.994 528.92 344.034 529.46C345.074 529.98 345.594 530.68 345.594 531.56C345.594 532 345.464 532.39 345.204 532.73C344.944 533.05 344.604 533.21 344.184 533.21C343.864 533.21 343.604 533.17 343.404 533.09C343.204 532.99 343.004 532.87 342.804 532.73C342.624 532.57 342.444 532.44 342.264 532.34C342.064 532.24 341.764 532.15 341.364 532.07C340.984 531.99 340.674 531.95 340.434 531.95C338.934 531.95 337.754 532.42 336.894 533.36C336.054 534.28 335.634 535.49 335.634 536.99C335.634 538.43 336.064 539.63 336.924 540.59C337.784 541.53 338.884 542 340.224 542C341.204 542 341.934 541.88 342.414 541.64C342.534 541.58 342.694 541.48 342.894 541.34C343.114 541.18 343.314 541.06 343.494 540.98C343.674 540.9 343.894 540.86 344.154 540.86C344.654 540.86 345.044 541.02 345.324 541.34C345.624 541.66 345.774 542.07 345.774 542.57C345.774 543.05 345.494 543.5 344.934 543.92C344.374 544.34 343.634 544.68 342.714 544.94C341.794 545.18 340.814 545.3 339.774 545.3C338.234 545.3 336.874 544.94 335.694 544.22C334.534 543.5 333.634 542.51 332.994 541.25C332.354 539.97 332.034 538.55 332.034 536.99C332.034 535.37 332.364 533.93 333.024 532.67C333.704 531.41 334.644 530.43 335.844 529.73C337.044 529.01 338.404 528.65 339.924 528.65ZM361.724 541.85C362.104 542.25 362.294 542.7 362.294 543.2C362.294 543.7 362.094 544.12 361.694 544.46C361.314 544.8 360.904 544.97 360.464 544.97C359.944 544.97 359.504 544.77 359.144 544.37L353.744 538.67L352.274 540.02V543.17C352.274 543.69 352.104 544.13 351.764 544.49C351.424 544.83 350.994 545 350.474 545C349.954 545 349.524 544.83 349.184 544.49C348.844 544.13 348.674 543.69 348.674 543.17V524.63C348.674 524.11 348.844 523.68 349.184 523.34C349.524 522.98 349.954 522.8 350.474 522.8C350.994 522.8 351.424 522.98 351.764 523.34C352.104 523.68 352.274 524.11 352.274 524.63V535.73L358.694 529.52C359.074 529.14 359.514 528.95 360.014 528.95C360.454 528.95 360.844 529.14 361.184 529.52C361.544 529.88 361.724 530.25 361.724 530.63C361.724 531.11 361.484 531.56 361.004 531.98L356.474 536.15L361.724 541.85ZM380.852 528.65C382.552 528.65 383.922 528.92 384.962 529.46C386.002 529.98 386.522 530.68 386.522 531.56C386.522 532 386.392 532.39 386.132 532.73C385.872 533.05 385.532 533.21 385.112 533.21C384.792 533.21 384.532 533.17 384.332 533.09C384.132 532.99 383.932 532.87 383.732 532.73C383.552 532.57 383.372 532.44 383.192 532.34C382.992 532.24 382.692 532.15 382.292 532.07C381.912 531.99 381.602 531.95 381.362 531.95C379.862 531.95 378.682 532.42 377.822 533.36C376.982 534.28 376.562 535.49 376.562 536.99C376.562 538.43 376.992 539.63 377.852 540.59C378.712 541.53 379.812 542 381.152 542C382.132 542 382.862 541.88 383.342 541.64C383.462 541.58 383.622 541.48 383.822 541.34C384.042 541.18 384.242 541.06 384.422 540.98C384.602 540.9 384.822 540.86 385.082 540.86C385.582 540.86 385.972 541.02 386.252 541.34C386.552 541.66 386.702 542.07 386.702 542.57C386.702 543.05 386.422 543.5 385.862 543.92C385.302 544.34 384.562 544.68 383.642 544.94C382.722 545.18 381.742 545.3 380.702 545.3C379.162 545.3 377.802 544.94 376.622 544.22C375.462 543.5 374.562 542.51 373.922 541.25C373.282 539.97 372.962 538.55 372.962 536.99C372.962 535.37 373.292 533.93 373.952 532.67C374.632 531.41 375.572 530.43 376.772 529.73C377.972 529.01 379.332 528.65 380.852 528.65ZM397.642 528.65C398.242 528.65 398.742 528.82 399.142 529.16C399.562 529.5 399.772 529.9 399.772 530.36C399.772 530.98 399.612 531.45 399.292 531.77C398.972 532.07 398.592 532.22 398.152 532.22C397.852 532.22 397.512 532.15 397.132 532.01C397.072 531.99 396.932 531.95 396.712 531.89C396.512 531.83 396.292 531.8 396.052 531.8C395.532 531.8 395.032 531.96 394.552 532.28C394.072 532.6 393.672 533.09 393.352 533.75C393.052 534.39 392.902 535.16 392.902 536.06V543.17C392.902 543.69 392.732 544.13 392.392 544.49C392.052 544.83 391.622 545 391.102 545C390.582 545 390.152 544.83 389.812 544.49C389.472 544.13 389.302 543.69 389.302 543.17V530.78C389.302 530.26 389.472 529.83 389.812 529.49C390.152 529.13 390.582 528.95 391.102 528.95C391.622 528.95 392.052 529.13 392.392 529.49C392.732 529.83 392.902 530.26 392.902 530.78V531.17C393.362 530.35 394.022 529.73 394.882 529.31C395.742 528.87 396.662 528.65 397.642 528.65ZM416.036 536.6C416.016 537.08 415.826 537.47 415.466 537.77C415.106 538.07 414.686 538.22 414.206 538.22H404.306C404.546 539.4 405.096 540.33 405.956 541.01C406.816 541.67 407.786 542 408.866 542C409.686 542 410.326 541.93 410.786 541.79C411.246 541.63 411.606 541.47 411.866 541.31C412.146 541.13 412.336 541.01 412.436 540.95C412.796 540.77 413.136 540.68 413.456 540.68C413.876 540.68 414.236 540.83 414.536 541.13C414.836 541.43 414.986 541.78 414.986 542.18C414.986 542.72 414.706 543.21 414.146 543.65C413.586 544.11 412.836 544.5 411.896 544.82C410.956 545.14 410.006 545.3 409.046 545.3C407.366 545.3 405.896 544.95 404.636 544.25C403.396 543.55 402.436 542.59 401.756 541.37C401.076 540.13 400.736 538.74 400.736 537.2C400.736 535.48 401.096 533.97 401.816 532.67C402.536 531.37 403.486 530.38 404.666 529.7C405.846 529 407.106 528.65 408.446 528.65C409.766 528.65 411.006 529.01 412.166 529.73C413.346 530.45 414.286 531.42 414.986 532.64C415.686 533.86 416.036 535.18 416.036 536.6ZM408.446 531.95C406.126 531.95 404.756 533.04 404.336 535.22H412.196V535.01C412.116 534.17 411.706 533.45 410.966 532.85C410.226 532.25 409.386 531.95 408.446 531.95ZM432.145 528.65C432.665 528.65 433.095 528.82 433.435 529.16C433.775 529.5 433.945 529.94 433.945 530.48V543.17C433.945 543.69 433.775 544.13 433.435 544.49C433.095 544.83 432.665 545 432.145 545C431.625 545 431.195 544.83 430.855 544.49C430.535 544.15 430.365 543.72 430.345 543.2C429.845 543.78 429.165 544.28 428.305 544.7C427.465 545.1 426.575 545.3 425.635 545.3C424.255 545.3 423.005 544.95 421.885 544.25C420.765 543.53 419.875 542.54 419.215 541.28C418.575 540.02 418.255 538.59 418.255 536.99C418.255 535.39 418.575 533.96 419.215 532.7C419.855 531.42 420.725 530.43 421.825 529.73C422.945 529.01 424.175 528.65 425.515 528.65C426.475 528.65 427.375 528.83 428.215 529.19C429.055 529.53 429.765 529.97 430.345 530.51V530.48C430.345 529.96 430.515 529.53 430.855 529.19C431.195 528.83 431.625 528.65 432.145 528.65ZM426.085 542C427.385 542 428.445 541.53 429.265 540.59C430.085 539.63 430.495 538.43 430.495 536.99C430.495 535.55 430.085 534.35 429.265 533.39C428.445 532.43 427.385 531.95 426.085 531.95C424.805 531.95 423.755 532.43 422.935 533.39C422.115 534.35 421.705 535.55 421.705 536.99C421.705 538.43 422.105 539.63 422.905 540.59C423.725 541.53 424.785 542 426.085 542ZM445.586 541.61C445.866 541.61 446.116 541.75 446.336 542.03C446.576 542.29 446.696 542.64 446.696 543.08C446.696 543.62 446.396 544.08 445.796 544.46C445.216 544.82 444.556 545 443.816 545C442.576 545 441.526 544.74 440.666 544.22C439.826 543.68 439.406 542.55 439.406 540.83V532.55H438.026C437.546 532.55 437.146 532.39 436.826 532.07C436.506 531.75 436.346 531.35 436.346 530.87C436.346 530.41 436.506 530.03 436.826 529.73C437.146 529.41 437.546 529.25 438.026 529.25H439.406V527.33C439.406 526.81 439.576 526.38 439.916 526.04C440.276 525.68 440.716 525.5 441.236 525.5C441.736 525.5 442.156 525.68 442.496 526.04C442.836 526.38 443.006 526.81 443.006 527.33V529.25H445.136C445.616 529.25 446.016 529.41 446.336 529.73C446.656 530.05 446.816 530.45 446.816 530.93C446.816 531.39 446.656 531.78 446.336 532.1C446.016 532.4 445.616 532.55 445.136 532.55H443.006V540.68C443.006 541.1 443.116 541.41 443.336 541.61C443.556 541.79 443.856 541.88 444.236 541.88C444.396 541.88 444.616 541.84 444.896 541.76C445.136 541.66 445.366 541.61 445.586 541.61ZM464.375 536.6C464.355 537.08 464.165 537.47 463.805 537.77C463.445 538.07 463.025 538.22 462.545 538.22H452.645C452.885 539.4 453.435 540.33 454.295 541.01C455.155 541.67 456.125 542 457.205 542C458.025 542 458.665 541.93 459.125 541.79C459.585 541.63 459.945 541.47 460.205 541.31C460.485 541.13 460.675 541.01 460.775 540.95C461.135 540.77 461.475 540.68 461.795 540.68C462.215 540.68 462.575 540.83 462.875 541.13C463.175 541.43 463.325 541.78 463.325 542.18C463.325 542.72 463.045 543.21 462.485 543.65C461.925 544.11 461.175 544.5 460.235 544.82C459.295 545.14 458.345 545.3 457.385 545.3C455.705 545.3 454.235 544.95 452.975 544.25C451.735 543.55 450.775 542.59 450.095 541.37C449.415 540.13 449.075 538.74 449.075 537.2C449.075 535.48 449.435 533.97 450.155 532.67C450.875 531.37 451.825 530.38 453.005 529.7C454.185 529 455.445 528.65 456.785 528.65C458.105 528.65 459.345 529.01 460.505 529.73C461.685 530.45 462.625 531.42 463.325 532.64C464.025 533.86 464.375 535.18 464.375 536.6ZM456.785 531.95C454.465 531.95 453.095 533.04 452.675 535.22H460.535V535.01C460.455 534.17 460.045 533.45 459.305 532.85C458.565 532.25 457.725 531.95 456.785 531.95ZM484.126 528.65C484.726 528.65 485.226 528.82 485.626 529.16C486.046 529.5 486.256 529.9 486.256 530.36C486.256 530.98 486.096 531.45 485.776 531.77C485.456 532.07 485.076 532.22 484.636 532.22C484.336 532.22 483.996 532.15 483.616 532.01C483.556 531.99 483.416 531.95 483.196 531.89C482.996 531.83 482.776 531.8 482.536 531.8C482.016 531.8 481.516 531.96 481.036 532.28C480.556 532.6 480.156 533.09 479.836 533.75C479.536 534.39 479.386 535.16 479.386 536.06V543.17C479.386 543.69 479.216 544.13 478.876 544.49C478.536 544.83 478.106 545 477.586 545C477.066 545 476.636 544.83 476.296 544.49C475.956 544.13 475.786 543.69 475.786 543.17V530.78C475.786 530.26 475.956 529.83 476.296 529.49C476.636 529.13 477.066 528.95 477.586 528.95C478.106 528.95 478.536 529.13 478.876 529.49C479.216 529.83 479.386 530.26 479.386 530.78V531.17C479.846 530.35 480.506 529.73 481.366 529.31C482.226 528.87 483.146 528.65 484.126 528.65ZM503.54 536.99C503.54 538.59 503.18 540.03 502.46 541.31C501.74 542.57 500.75 543.55 499.49 544.25C498.25 544.95 496.88 545.3 495.38 545.3C493.86 545.3 492.48 544.95 491.24 544.25C490 543.55 489.02 542.57 488.3 541.31C487.58 540.03 487.22 538.59 487.22 536.99C487.22 535.39 487.58 533.96 488.3 532.7C489.02 531.42 490 530.43 491.24 529.73C492.48 529.01 493.86 528.65 495.38 528.65C496.88 528.65 498.25 529.01 499.49 529.73C500.75 530.43 501.74 531.42 502.46 532.7C503.18 533.96 503.54 535.39 503.54 536.99ZM499.94 536.99C499.94 536.01 499.73 535.14 499.31 534.38C498.91 533.6 498.36 533 497.66 532.58C496.98 532.16 496.22 531.95 495.38 531.95C494.54 531.95 493.77 532.16 493.07 532.58C492.39 533 491.84 533.6 491.42 534.38C491.02 535.14 490.82 536.01 490.82 536.99C490.82 537.97 491.02 538.84 491.42 539.6C491.84 540.36 492.39 540.95 493.07 541.37C493.77 541.79 494.54 542 495.38 542C496.22 542 496.98 541.79 497.66 541.37C498.36 540.95 498.91 540.36 499.31 539.6C499.73 538.84 499.94 537.97 499.94 536.99ZM521.968 536.99C521.968 538.59 521.608 540.03 520.888 541.31C520.168 542.57 519.178 543.55 517.918 544.25C516.678 544.95 515.308 545.3 513.808 545.3C512.288 545.3 510.908 544.95 509.668 544.25C508.428 543.55 507.448 542.57 506.728 541.31C506.008 540.03 505.648 538.59 505.648 536.99C505.648 535.39 506.008 533.96 506.728 532.7C507.448 531.42 508.428 530.43 509.668 529.73C510.908 529.01 512.288 528.65 513.808 528.65C515.308 528.65 516.678 529.01 517.918 529.73C519.178 530.43 520.168 531.42 520.888 532.7C521.608 533.96 521.968 535.39 521.968 536.99ZM518.368 536.99C518.368 536.01 518.158 535.14 517.738 534.38C517.338 533.6 516.788 533 516.088 532.58C515.408 532.16 514.648 531.95 513.808 531.95C512.968 531.95 512.198 532.16 511.498 532.58C510.818 533 510.268 533.6 509.848 534.38C509.448 535.14 509.248 536.01 509.248 536.99C509.248 537.97 509.448 538.84 509.848 539.6C510.268 540.36 510.818 540.95 511.498 541.37C512.198 541.79 512.968 542 513.808 542C514.648 542 515.408 541.79 516.088 541.37C516.788 540.95 517.338 540.36 517.738 539.6C518.158 538.84 518.368 537.97 518.368 536.99ZM543.485 528.65C545.465 528.65 546.835 529.26 547.595 530.48C548.355 531.68 548.735 533.35 548.735 535.49V543.17C548.735 543.69 548.565 544.13 548.225 544.49C547.885 544.83 547.455 545 546.935 545C546.415 545 545.985 544.83 545.645 544.49C545.305 544.13 545.135 543.69 545.135 543.17V535.49C545.135 534.39 544.915 533.53 544.475 532.91C544.055 532.27 543.305 531.95 542.225 531.95C541.105 531.95 540.225 532.29 539.585 532.97C538.965 533.63 538.655 534.47 538.655 535.49V543.17C538.655 543.69 538.485 544.13 538.145 544.49C537.805 544.83 537.375 545 536.855 545C536.335 545 535.905 544.83 535.565 544.49C535.225 544.13 535.055 543.69 535.055 543.17V535.49C535.055 534.39 534.835 533.53 534.395 532.91C533.975 532.27 533.225 531.95 532.145 531.95C531.025 531.95 530.145 532.29 529.505 532.97C528.885 533.63 528.575 534.47 528.575 535.49V543.17C528.575 543.69 528.405 544.13 528.065 544.49C527.725 544.83 527.295 545 526.775 545C526.255 545 525.825 544.83 525.485 544.49C525.145 544.13 524.975 543.69 524.975 543.17V530.78C524.975 530.26 525.145 529.83 525.485 529.49C525.825 529.13 526.255 528.95 526.775 528.95C527.295 528.95 527.725 529.13 528.065 529.49C528.405 529.83 528.575 530.26 528.575 530.78V531.26C529.115 530.54 529.795 529.93 530.615 529.43C531.455 528.91 532.385 528.65 533.405 528.65C535.925 528.65 537.535 529.75 538.235 531.95C538.695 531.11 539.385 530.35 540.305 529.67C541.245 528.99 542.305 528.65 543.485 528.65ZM569.35 528.65C570.73 528.65 571.98 529.01 573.1 529.73C574.22 530.43 575.1 531.41 575.74 532.67C576.4 533.93 576.73 535.36 576.73 536.96C576.73 538.56 576.41 540 575.77 541.28C575.13 542.54 574.25 543.53 573.13 544.25C572.03 544.95 570.81 545.3 569.47 545.3C568.51 545.3 567.6 545.11 566.74 544.73C565.9 544.33 565.2 543.85 564.64 543.29V543.47C564.64 543.99 564.47 544.43 564.13 544.79C563.79 545.13 563.36 545.3 562.84 545.3C562.32 545.3 561.89 545.13 561.55 544.79C561.21 544.45 561.04 544.01 561.04 543.47V524.63C561.04 524.11 561.21 523.68 561.55 523.34C561.89 522.98 562.32 522.8 562.84 522.8C563.36 522.8 563.79 522.98 564.13 523.34C564.47 523.68 564.64 524.11 564.64 524.63V530.9C565.12 530.3 565.79 529.78 566.65 529.34C567.51 528.88 568.41 528.65 569.35 528.65ZM568.9 542C570.18 542 571.23 541.52 572.05 540.56C572.87 539.6 573.28 538.4 573.28 536.96C573.28 535.52 572.87 534.33 572.05 533.39C571.25 532.43 570.2 531.95 568.9 531.95C567.6 531.95 566.54 532.43 565.72 533.39C564.9 534.33 564.49 535.52 564.49 536.96C564.49 538.4 564.9 539.6 565.72 540.56C566.54 541.52 567.6 542 568.9 542ZM591.641 528.95C592.161 528.95 592.591 529.13 592.931 529.49C593.271 529.83 593.441 530.26 593.441 530.78V538.4C593.441 540.56 592.841 542.25 591.641 543.47C590.461 544.69 588.771 545.3 586.571 545.3C584.371 545.3 582.681 544.69 581.501 543.47C580.321 542.25 579.731 540.56 579.731 538.4V530.78C579.731 530.26 579.901 529.83 580.241 529.49C580.581 529.13 581.011 528.95 581.531 528.95C582.051 528.95 582.481 529.13 582.821 529.49C583.161 529.83 583.331 530.26 583.331 530.78V538.4C583.331 539.62 583.601 540.53 584.141 541.13C584.681 541.71 585.491 542 586.571 542C587.671 542 588.491 541.71 589.031 541.13C589.571 540.53 589.841 539.62 589.841 538.4V530.78C589.841 530.26 590.011 529.83 590.351 529.49C590.691 529.13 591.121 528.95 591.641 528.95ZM605.079 541.61C605.359 541.61 605.609 541.75 605.829 542.03C606.069 542.29 606.189 542.64 606.189 543.08C606.189 543.62 605.889 544.08 605.289 544.46C604.709 544.82 604.049 545 603.309 545C602.069 545 601.019 544.74 600.159 544.22C599.319 543.68 598.899 542.55 598.899 540.83V532.55H597.519C597.039 532.55 596.639 532.39 596.319 532.07C595.999 531.75 595.839 531.35 595.839 530.87C595.839 530.41 595.999 530.03 596.319 529.73C596.639 529.41 597.039 529.25 597.519 529.25H598.899V527.33C598.899 526.81 599.069 526.38 599.409 526.04C599.769 525.68 600.209 525.5 600.729 525.5C601.229 525.5 601.649 525.68 601.989 526.04C602.329 526.38 602.499 526.81 602.499 527.33V529.25H604.629C605.109 529.25 605.509 529.41 605.829 529.73C606.149 530.05 606.309 530.45 606.309 530.93C606.309 531.39 606.149 531.78 605.829 532.1C605.509 532.4 605.109 532.55 604.629 532.55H602.499V540.68C602.499 541.1 602.609 541.41 602.829 541.61C603.049 541.79 603.349 541.88 603.729 541.88C603.889 541.88 604.109 541.84 604.389 541.76C604.629 541.66 604.859 541.61 605.079 541.61ZM617.354 541.61C617.634 541.61 617.884 541.75 618.104 542.03C618.344 542.29 618.464 542.64 618.464 543.08C618.464 543.62 618.164 544.08 617.564 544.46C616.984 544.82 616.324 545 615.584 545C614.344 545 613.294 544.74 612.434 544.22C611.594 543.68 611.174 542.55 611.174 540.83V532.55H609.794C609.314 532.55 608.914 532.39 608.594 532.07C608.274 531.75 608.114 531.35 608.114 530.87C608.114 530.41 608.274 530.03 608.594 529.73C608.914 529.41 609.314 529.25 609.794 529.25H611.174V527.33C611.174 526.81 611.344 526.38 611.684 526.04C612.044 525.68 612.484 525.5 613.004 525.5C613.504 525.5 613.924 525.68 614.264 526.04C614.604 526.38 614.774 526.81 614.774 527.33V529.25H616.904C617.384 529.25 617.784 529.41 618.104 529.73C618.424 530.05 618.584 530.45 618.584 530.93C618.584 531.39 618.424 531.78 618.104 532.1C617.784 532.4 617.384 532.55 616.904 532.55H614.774V540.68C614.774 541.1 614.884 541.41 615.104 541.61C615.324 541.79 615.624 541.88 616.004 541.88C616.164 541.88 616.384 541.84 616.664 541.76C616.904 541.66 617.134 541.61 617.354 541.61ZM637.163 536.99C637.163 538.59 636.803 540.03 636.083 541.31C635.363 542.57 634.373 543.55 633.113 544.25C631.873 544.95 630.503 545.3 629.003 545.3C627.483 545.3 626.103 544.95 624.863 544.25C623.623 543.55 622.643 542.57 621.923 541.31C621.203 540.03 620.843 538.59 620.843 536.99C620.843 535.39 621.203 533.96 621.923 532.7C622.643 531.42 623.623 530.43 624.863 529.73C626.103 529.01 627.483 528.65 629.003 528.65C630.503 528.65 631.873 529.01 633.113 529.73C634.373 530.43 635.363 531.42 636.083 532.7C636.803 533.96 637.163 535.39 637.163 536.99ZM633.563 536.99C633.563 536.01 633.353 535.14 632.933 534.38C632.533 533.6 631.983 533 631.283 532.58C630.603 532.16 629.843 531.95 629.003 531.95C628.163 531.95 627.393 532.16 626.693 532.58C626.013 533 625.463 533.6 625.043 534.38C624.643 535.14 624.443 536.01 624.443 536.99C624.443 537.97 624.643 538.84 625.043 539.6C625.463 540.36 626.013 540.95 626.693 541.37C627.393 541.79 628.163 542 629.003 542C629.843 542 630.603 541.79 631.283 541.37C631.983 540.95 632.533 540.36 632.933 539.6C633.353 538.84 633.563 537.97 633.563 536.99ZM648.751 528.65C650.791 528.65 652.201 529.26 652.981 530.48C653.761 531.68 654.151 533.35 654.151 535.49V543.17C654.151 543.69 653.981 544.13 653.641 544.49C653.301 544.83 652.871 545 652.351 545C651.831 545 651.401 544.83 651.061 544.49C650.721 544.13 650.551 543.69 650.551 543.17V535.49C650.551 534.39 650.321 533.53 649.861 532.91C649.401 532.27 648.611 531.95 647.491 531.95C646.331 531.95 645.421 532.29 644.761 532.97C644.101 533.63 643.771 534.47 643.771 535.49V543.17C643.771 543.69 643.601 544.13 643.261 544.49C642.921 544.83 642.491 545 641.971 545C641.451 545 641.021 544.83 640.681 544.49C640.341 544.13 640.171 543.69 640.171 543.17V530.78C640.171 530.26 640.341 529.83 640.681 529.49C641.021 529.13 641.451 528.95 641.971 528.95C642.491 528.95 642.921 529.13 643.261 529.49C643.601 529.83 643.771 530.26 643.771 530.78V531.29C644.311 530.57 645.011 529.95 645.871 529.43C646.751 528.91 647.711 528.65 648.751 528.65ZM674.19 541.61C674.47 541.61 674.72 541.75 674.94 542.03C675.18 542.29 675.3 542.64 675.3 543.08C675.3 543.62 675 544.08 674.4 544.46C673.82 544.82 673.16 545 672.42 545C671.18 545 670.13 544.74 669.27 544.22C668.43 543.68 668.01 542.55 668.01 540.83V532.55H666.63C666.15 532.55 665.75 532.39 665.43 532.07C665.11 531.75 664.95 531.35 664.95 530.87C664.95 530.41 665.11 530.03 665.43 529.73C665.75 529.41 666.15 529.25 666.63 529.25H668.01V527.33C668.01 526.81 668.18 526.38 668.52 526.04C668.88 525.68 669.32 525.5 669.84 525.5C670.34 525.5 670.76 525.68 671.1 526.04C671.44 526.38 671.61 526.81 671.61 527.33V529.25H673.74C674.22 529.25 674.62 529.41 674.94 529.73C675.26 530.05 675.42 530.45 675.42 530.93C675.42 531.39 675.26 531.78 674.94 532.1C674.62 532.4 674.22 532.55 673.74 532.55H671.61V540.68C671.61 541.1 671.72 541.41 671.94 541.61C672.16 541.79 672.46 541.88 672.84 541.88C673 541.88 673.22 541.84 673.5 541.76C673.74 541.66 673.97 541.61 674.19 541.61ZM693.999 536.99C693.999 538.59 693.639 540.03 692.919 541.31C692.199 542.57 691.209 543.55 689.949 544.25C688.709 544.95 687.339 545.3 685.839 545.3C684.319 545.3 682.939 544.95 681.699 544.25C680.459 543.55 679.479 542.57 678.759 541.31C678.039 540.03 677.679 538.59 677.679 536.99C677.679 535.39 678.039 533.96 678.759 532.7C679.479 531.42 680.459 530.43 681.699 529.73C682.939 529.01 684.319 528.65 685.839 528.65C687.339 528.65 688.709 529.01 689.949 529.73C691.209 530.43 692.199 531.42 692.919 532.7C693.639 533.96 693.999 535.39 693.999 536.99ZM690.399 536.99C690.399 536.01 690.189 535.14 689.769 534.38C689.369 533.6 688.819 533 688.119 532.58C687.439 532.16 686.679 531.95 685.839 531.95C684.999 531.95 684.229 532.16 683.529 532.58C682.849 533 682.299 533.6 681.879 534.38C681.479 535.14 681.279 536.01 681.279 536.99C681.279 537.97 681.479 538.84 681.879 539.6C682.299 540.36 682.849 540.95 683.529 541.37C684.229 541.79 684.999 542 685.839 542C686.679 542 687.439 541.79 688.119 541.37C688.819 540.95 689.369 540.36 689.769 539.6C690.189 538.84 690.399 537.97 690.399 536.99ZM709.315 543.17C709.315 543.69 709.135 544.13 708.775 544.49C708.435 544.83 708.005 545 707.485 545C706.985 545 706.565 544.83 706.225 544.49C705.885 544.13 705.715 543.69 705.715 543.17V524.63C705.715 524.11 705.885 523.68 706.225 523.34C706.585 522.98 707.025 522.8 707.545 522.8C708.045 522.8 708.465 522.98 708.805 523.34C709.145 523.68 709.315 524.11 709.315 524.63V543.17ZM726.491 528.65C727.011 528.65 727.441 528.82 727.781 529.16C728.121 529.5 728.291 529.94 728.291 530.48V543.17C728.291 543.69 728.121 544.13 727.781 544.49C727.441 544.83 727.011 545 726.491 545C725.971 545 725.541 544.83 725.201 544.49C724.881 544.15 724.711 543.72 724.691 543.2C724.191 543.78 723.511 544.28 722.651 544.7C721.811 545.1 720.921 545.3 719.981 545.3C718.601 545.3 717.351 544.95 716.231 544.25C715.111 543.53 714.221 542.54 713.561 541.28C712.921 540.02 712.601 538.59 712.601 536.99C712.601 535.39 712.921 533.96 713.561 532.7C714.201 531.42 715.071 530.43 716.171 529.73C717.291 529.01 718.521 528.65 719.861 528.65C720.821 528.65 721.721 528.83 722.561 529.19C723.401 529.53 724.111 529.97 724.691 530.51V530.48C724.691 529.96 724.861 529.53 725.201 529.19C725.541 528.83 725.971 528.65 726.491 528.65ZM720.431 542C721.731 542 722.791 541.53 723.611 540.59C724.431 539.63 724.841 538.43 724.841 536.99C724.841 535.55 724.431 534.35 723.611 533.39C722.791 532.43 721.731 531.95 720.431 531.95C719.151 531.95 718.101 532.43 717.281 533.39C716.461 534.35 716.051 535.55 716.051 536.99C716.051 538.43 716.451 539.63 717.251 540.59C718.071 541.53 719.131 542 720.431 542ZM743.809 528.95C744.329 528.95 744.759 529.13 745.099 529.49C745.439 529.83 745.609 530.26 745.609 530.78V538.4C745.609 540.56 745.009 542.25 743.809 543.47C742.629 544.69 740.939 545.3 738.739 545.3C736.539 545.3 734.849 544.69 733.669 543.47C732.489 542.25 731.899 540.56 731.899 538.4V530.78C731.899 530.26 732.069 529.83 732.409 529.49C732.749 529.13 733.179 528.95 733.699 528.95C734.219 528.95 734.649 529.13 734.989 529.49C735.329 529.83 735.499 530.26 735.499 530.78V538.4C735.499 539.62 735.769 540.53 736.309 541.13C736.849 541.71 737.659 542 738.739 542C739.839 542 740.659 541.71 741.199 541.13C741.739 540.53 742.009 539.62 742.009 538.4V530.78C742.009 530.26 742.179 529.83 742.519 529.49C742.859 529.13 743.289 528.95 743.809 528.95ZM758.087 528.65C760.127 528.65 761.537 529.26 762.317 530.48C763.097 531.68 763.487 533.35 763.487 535.49V543.17C763.487 543.69 763.317 544.13 762.977 544.49C762.637 544.83 762.207 545 761.687 545C761.167 545 760.737 544.83 760.397 544.49C760.057 544.13 759.887 543.69 759.887 543.17V535.49C759.887 534.39 759.657 533.53 759.197 532.91C758.737 532.27 757.947 531.95 756.827 531.95C755.667 531.95 754.757 532.29 754.097 532.97C753.437 533.63 753.107 534.47 753.107 535.49V543.17C753.107 543.69 752.937 544.13 752.597 544.49C752.257 544.83 751.827 545 751.307 545C750.787 545 750.357 544.83 750.017 544.49C749.677 544.13 749.507 543.69 749.507 543.17V530.78C749.507 530.26 749.677 529.83 750.017 529.49C750.357 529.13 750.787 528.95 751.307 528.95C751.827 528.95 752.257 529.13 752.597 529.49C752.937 529.83 753.107 530.26 753.107 530.78V531.29C753.647 530.57 754.347 529.95 755.207 529.43C756.087 528.91 757.047 528.65 758.087 528.65ZM774.368 528.65C776.068 528.65 777.438 528.92 778.478 529.46C779.518 529.98 780.038 530.68 780.038 531.56C780.038 532 779.908 532.39 779.648 532.73C779.388 533.05 779.048 533.21 778.628 533.21C778.308 533.21 778.048 533.17 777.848 533.09C777.648 532.99 777.448 532.87 777.248 532.73C777.068 532.57 776.888 532.44 776.708 532.34C776.508 532.24 776.208 532.15 775.808 532.07C775.428 531.99 775.118 531.95 774.878 531.95C773.378 531.95 772.198 532.42 771.338 533.36C770.498 534.28 770.078 535.49 770.078 536.99C770.078 538.43 770.508 539.63 771.368 540.59C772.228 541.53 773.328 542 774.668 542C775.648 542 776.378 541.88 776.858 541.64C776.978 541.58 777.138 541.48 777.338 541.34C777.558 541.18 777.758 541.06 777.938 540.98C778.118 540.9 778.338 540.86 778.598 540.86C779.098 540.86 779.488 541.02 779.768 541.34C780.068 541.66 780.218 542.07 780.218 542.57C780.218 543.05 779.938 543.5 779.378 543.92C778.818 544.34 778.078 544.68 777.158 544.94C776.238 545.18 775.258 545.3 774.218 545.3C772.678 545.3 771.318 544.94 770.138 544.22C768.978 543.5 768.078 542.51 767.438 541.25C766.798 539.97 766.478 538.55 766.478 536.99C766.478 535.37 766.808 533.93 767.468 532.67C768.148 531.41 769.088 530.43 770.288 529.73C771.488 529.01 772.848 528.65 774.368 528.65ZM791.247 528.65C793.227 528.65 794.597 529.26 795.357 530.48C796.117 531.68 796.497 533.35 796.497 535.49V543.17C796.497 543.69 796.327 544.13 795.987 544.49C795.647 544.83 795.217 545 794.697 545C794.177 545 793.747 544.83 793.407 544.49C793.067 544.13 792.897 543.69 792.897 543.17V535.49C792.897 534.39 792.677 533.53 792.237 532.91C791.817 532.27 791.067 531.95 789.987 531.95C788.867 531.95 787.987 532.29 787.347 532.97C786.727 533.63 786.417 534.47 786.417 535.49V543.17C786.417 543.69 786.247 544.13 785.907 544.49C785.567 544.83 785.137 545 784.617 545C784.097 545 783.667 544.83 783.327 544.49C782.987 544.13 782.817 543.69 782.817 543.17V524.63C782.817 524.11 782.987 523.68 783.327 523.34C783.667 522.98 784.097 522.8 784.617 522.8C785.137 522.8 785.567 522.98 785.907 523.34C786.247 523.68 786.417 524.11 786.417 524.63V531.26C786.957 530.54 787.637 529.93 788.457 529.43C789.297 528.91 790.227 528.65 791.247 528.65ZM820.714 528.95C821.234 528.95 821.664 529.13 822.004 529.49C822.344 529.83 822.514 530.26 822.514 530.78V543.53C822.514 546.13 821.814 548.02 820.414 549.2C819.014 550.4 817.144 551 814.804 551C814.124 551 813.424 550.94 812.704 550.82C812.004 550.72 811.434 550.58 810.994 550.4C810.014 549.98 809.524 549.4 809.524 548.66C809.524 548.52 809.554 548.36 809.614 548.18C809.734 547.74 809.934 547.4 810.214 547.16C810.514 546.94 810.834 546.83 811.174 546.83C811.374 546.83 811.564 546.86 811.744 546.92C811.884 546.98 812.124 547.08 812.464 547.22C812.824 547.36 813.194 547.47 813.574 547.55C813.974 547.65 814.384 547.7 814.804 547.7C816.224 547.7 817.264 547.39 817.924 546.77C818.604 546.17 818.944 545.13 818.944 543.65V543.35C817.904 544.65 816.284 545.3 814.084 545.3C813.044 545.3 812.124 545.06 811.324 544.58C810.524 544.08 809.904 543.4 809.464 542.54C809.024 541.66 808.804 540.66 808.804 539.54V530.78C808.804 530.26 808.974 529.83 809.314 529.49C809.654 529.13 810.084 528.95 810.604 528.95C811.124 528.95 811.554 529.13 811.894 529.49C812.234 529.83 812.404 530.26 812.404 530.78V538.46C812.404 539.72 812.674 540.63 813.214 541.19C813.774 541.73 814.584 542 815.644 542C816.684 542 817.484 541.7 818.044 541.1C818.624 540.48 818.914 539.6 818.914 538.46V530.78C818.914 530.26 819.084 529.83 819.424 529.49C819.764 529.13 820.194 528.95 820.714 528.95ZM841.684 536.99C841.684 538.59 841.324 540.03 840.604 541.31C839.884 542.57 838.894 543.55 837.634 544.25C836.394 544.95 835.024 545.3 833.524 545.3C832.004 545.3 830.624 544.95 829.384 544.25C828.144 543.55 827.164 542.57 826.444 541.31C825.724 540.03 825.364 538.59 825.364 536.99C825.364 535.39 825.724 533.96 826.444 532.7C827.164 531.42 828.144 530.43 829.384 529.73C830.624 529.01 832.004 528.65 833.524 528.65C835.024 528.65 836.394 529.01 837.634 529.73C838.894 530.43 839.884 531.42 840.604 532.7C841.324 533.96 841.684 535.39 841.684 536.99ZM838.084 536.99C838.084 536.01 837.874 535.14 837.454 534.38C837.054 533.6 836.504 533 835.804 532.58C835.124 532.16 834.364 531.95 833.524 531.95C832.684 531.95 831.914 532.16 831.214 532.58C830.534 533 829.984 533.6 829.564 534.38C829.164 535.14 828.964 536.01 828.964 536.99C828.964 537.97 829.164 538.84 829.564 539.6C829.984 540.36 830.534 540.95 831.214 541.37C831.914 541.79 832.684 542 833.524 542C834.364 542 835.124 541.79 835.804 541.37C836.504 540.95 837.054 540.36 837.454 539.6C837.874 538.84 838.084 537.97 838.084 536.99ZM856.602 528.95C857.122 528.95 857.552 529.13 857.892 529.49C858.232 529.83 858.402 530.26 858.402 530.78V538.4C858.402 540.56 857.802 542.25 856.602 543.47C855.422 544.69 853.732 545.3 851.532 545.3C849.332 545.3 847.642 544.69 846.462 543.47C845.282 542.25 844.692 540.56 844.692 538.4V530.78C844.692 530.26 844.862 529.83 845.202 529.49C845.542 529.13 845.972 528.95 846.492 528.95C847.012 528.95 847.442 529.13 847.782 529.49C848.122 529.83 848.292 530.26 848.292 530.78V538.4C848.292 539.62 848.562 540.53 849.102 541.13C849.642 541.71 850.452 542 851.532 542C852.632 542 853.452 541.71 853.992 541.13C854.532 540.53 854.802 539.62 854.802 538.4V530.78C854.802 530.26 854.972 529.83 855.312 529.49C855.652 529.13 856.082 528.95 856.602 528.95ZM870.64 528.65C871.24 528.65 871.74 528.82 872.14 529.16C872.56 529.5 872.77 529.9 872.77 530.36C872.77 530.98 872.61 531.45 872.29 531.77C871.97 532.07 871.59 532.22 871.15 532.22C870.85 532.22 870.51 532.15 870.13 532.01C870.07 531.99 869.93 531.95 869.71 531.89C869.51 531.83 869.29 531.8 869.05 531.8C868.53 531.8 868.03 531.96 867.55 532.28C867.07 532.6 866.67 533.09 866.35 533.75C866.05 534.39 865.9 535.16 865.9 536.06V543.17C865.9 543.69 865.73 544.13 865.39 544.49C865.05 544.83 864.62 545 864.1 545C863.58 545 863.15 544.83 862.81 544.49C862.47 544.13 862.3 543.69 862.3 543.17V530.78C862.3 530.26 862.47 529.83 862.81 529.49C863.15 529.13 863.58 528.95 864.1 528.95C864.62 528.95 865.05 529.13 865.39 529.49C865.73 529.83 865.9 530.26 865.9 530.78V531.17C866.36 530.35 867.02 529.73 867.88 529.31C868.74 528.87 869.66 528.65 870.64 528.65ZM899.136 536.99C899.136 538.59 898.776 540.03 898.056 541.31C897.336 542.57 896.346 543.55 895.086 544.25C893.846 544.95 892.476 545.3 890.976 545.3C889.456 545.3 888.076 544.95 886.836 544.25C885.596 543.55 884.616 542.57 883.896 541.31C883.176 540.03 882.816 538.59 882.816 536.99C882.816 535.39 883.176 533.96 883.896 532.7C884.616 531.42 885.596 530.43 886.836 529.73C888.076 529.01 889.456 528.65 890.976 528.65C892.476 528.65 893.846 529.01 895.086 529.73C896.346 530.43 897.336 531.42 898.056 532.7C898.776 533.96 899.136 535.39 899.136 536.99ZM895.536 536.99C895.536 536.01 895.326 535.14 894.906 534.38C894.506 533.6 893.956 533 893.256 532.58C892.576 532.16 891.816 531.95 890.976 531.95C890.136 531.95 889.366 532.16 888.666 532.58C887.986 533 887.436 533.6 887.016 534.38C886.616 535.14 886.416 536.01 886.416 536.99C886.416 537.97 886.616 538.84 887.016 539.6C887.436 540.36 887.986 540.95 888.666 541.37C889.366 541.79 890.136 542 890.976 542C891.816 542 892.576 541.79 893.256 541.37C893.956 540.95 894.506 540.36 894.906 539.6C895.326 538.84 895.536 537.97 895.536 536.99ZM920.623 528.95C921.103 528.95 921.503 529.13 921.823 529.49C922.163 529.83 922.333 530.27 922.333 530.81C922.333 530.99 922.293 531.22 922.213 531.5L917.623 543.86C917.503 544.22 917.283 544.51 916.963 544.73C916.663 544.93 916.333 545.03 915.973 545.03L915.733 545C915.053 544.96 914.543 544.58 914.203 543.86L911.653 536.48L909.223 543.86C908.883 544.58 908.373 544.96 907.693 545L907.453 545.03C907.093 545.03 906.753 544.93 906.433 544.73C906.133 544.51 905.923 544.22 905.803 543.86L901.213 531.5C901.133 531.28 901.093 531.05 901.093 530.81C901.093 530.31 901.253 529.88 901.573 529.52C901.913 529.14 902.353 528.95 902.893 528.95C903.293 528.95 903.633 529.05 903.913 529.25C904.213 529.43 904.423 529.71 904.543 530.09L907.783 538.88L910.153 532.46C910.473 531.72 911.023 531.35 911.803 531.35C912.223 531.35 912.543 531.44 912.763 531.62C913.003 531.8 913.203 532.08 913.363 532.46L915.673 538.73L918.883 530.09C919.003 529.71 919.213 529.43 919.513 529.25C919.813 529.05 920.183 528.95 920.623 528.95ZM933.751 528.65C935.791 528.65 937.201 529.26 937.981 530.48C938.761 531.68 939.151 533.35 939.151 535.49V543.17C939.151 543.69 938.981 544.13 938.641 544.49C938.301 544.83 937.871 545 937.351 545C936.831 545 936.401 544.83 936.061 544.49C935.721 544.13 935.551 543.69 935.551 543.17V535.49C935.551 534.39 935.321 533.53 934.861 532.91C934.401 532.27 933.611 531.95 932.491 531.95C931.331 531.95 930.421 532.29 929.761 532.97C929.101 533.63 928.771 534.47 928.771 535.49V543.17C928.771 543.69 928.601 544.13 928.261 544.49C927.921 544.83 927.491 545 926.971 545C926.451 545 926.021 544.83 925.681 544.49C925.341 544.13 925.171 543.69 925.171 543.17V530.78C925.171 530.26 925.341 529.83 925.681 529.49C926.021 529.13 926.451 528.95 926.971 528.95C927.491 528.95 927.921 529.13 928.261 529.49C928.601 529.83 928.771 530.26 928.771 530.78V531.29C929.311 530.57 930.011 529.95 930.871 529.43C931.751 528.91 932.711 528.65 933.751 528.65ZM963.78 528.98C964.26 528.98 964.66 529.14 964.98 529.46C965.3 529.76 965.46 530.14 965.46 530.6C965.46 530.84 965.38 531.14 965.22 531.5L959.61 543.86C959.47 544.2 959.26 544.47 958.98 544.67C958.72 544.87 958.42 544.98 958.08 545L957.81 545.03C957.47 545.03 957.15 544.93 956.85 544.73C956.57 544.51 956.35 544.22 956.19 543.86L950.61 531.5C950.47 531.18 950.4 530.86 950.4 530.54C950.4 530.14 950.57 529.78 950.91 529.46C951.25 529.12 951.67 528.95 952.17 528.95C952.55 528.95 952.9 529.05 953.22 529.25C953.54 529.45 953.78 529.73 953.94 530.09L958.08 539.57L962.19 530.12C962.35 529.74 962.57 529.45 962.85 529.25C963.13 529.05 963.44 528.96 963.78 528.98ZM971.686 543.17C971.686 543.69 971.516 544.13 971.176 544.49C970.836 544.83 970.406 545 969.886 545C969.366 545 968.936 544.83 968.596 544.49C968.256 544.13 968.086 543.69 968.086 543.17V530.78C968.086 530.26 968.256 529.83 968.596 529.49C968.936 529.13 969.366 528.95 969.886 528.95C970.406 528.95 970.836 529.13 971.176 529.49C971.516 529.83 971.686 530.26 971.686 530.78V543.17ZM969.856 527C969.176 527 968.696 526.89 968.416 526.67C968.136 526.45 967.996 526.06 967.996 525.5V524.93C967.996 524.37 968.146 523.98 968.446 523.76C968.746 523.54 969.226 523.43 969.886 523.43C970.586 523.43 971.076 523.54 971.356 523.76C971.636 523.98 971.776 524.37 971.776 524.93V525.5C971.776 526.08 971.626 526.48 971.326 526.7C971.046 526.9 970.556 527 969.856 527ZM983.726 528.65C984.326 528.65 984.826 528.82 985.226 529.16C985.646 529.5 985.856 529.9 985.856 530.36C985.856 530.98 985.696 531.45 985.376 531.77C985.056 532.07 984.676 532.22 984.236 532.22C983.936 532.22 983.596 532.15 983.216 532.01C983.156 531.99 983.016 531.95 982.796 531.89C982.596 531.83 982.376 531.8 982.136 531.8C981.616 531.8 981.116 531.96 980.636 532.28C980.156 532.6 979.756 533.09 979.436 533.75C979.136 534.39 978.986 535.16 978.986 536.06V543.17C978.986 543.69 978.816 544.13 978.476 544.49C978.136 544.83 977.706 545 977.186 545C976.666 545 976.236 544.83 975.896 544.49C975.556 544.13 975.386 543.69 975.386 543.17V530.78C975.386 530.26 975.556 529.83 975.896 529.49C976.236 529.13 976.666 528.95 977.186 528.95C977.706 528.95 978.136 529.13 978.476 529.49C978.816 529.83 978.986 530.26 978.986 530.78V531.17C979.446 530.35 980.106 529.73 980.966 529.31C981.826 528.87 982.746 528.65 983.726 528.65ZM996.133 541.61C996.413 541.61 996.663 541.75 996.883 542.03C997.123 542.29 997.243 542.64 997.243 543.08C997.243 543.62 996.943 544.08 996.343 544.46C995.763 544.82 995.103 545 994.363 545C993.123 545 992.073 544.74 991.213 544.22C990.373 543.68 989.953 542.55 989.953 540.83V532.55H988.573C988.093 532.55 987.693 532.39 987.373 532.07C987.053 531.75 986.893 531.35 986.893 530.87C986.893 530.41 987.053 530.03 987.373 529.73C987.693 529.41 988.093 529.25 988.573 529.25H989.953V527.33C989.953 526.81 990.123 526.38 990.463 526.04C990.823 525.68 991.263 525.5 991.783 525.5C992.283 525.5 992.703 525.68 993.043 526.04C993.383 526.38 993.553 526.81 993.553 527.33V529.25H995.683C996.163 529.25 996.563 529.41 996.883 529.73C997.203 530.05 997.363 530.45 997.363 530.93C997.363 531.39 997.203 531.78 996.883 532.1C996.563 532.4 996.163 532.55 995.683 532.55H993.553V540.68C993.553 541.1 993.663 541.41 993.883 541.61C994.103 541.79 994.403 541.88 994.783 541.88C994.943 541.88 995.163 541.84 995.443 541.76C995.683 541.66 995.913 541.61 996.133 541.61ZM1012.58 528.95C1013.1 528.95 1013.53 529.13 1013.87 529.49C1014.21 529.83 1014.38 530.26 1014.38 530.78V538.4C1014.38 540.56 1013.78 542.25 1012.58 543.47C1011.4 544.69 1009.71 545.3 1007.51 545.3C1005.31 545.3 1003.62 544.69 1002.44 543.47C1001.26 542.25 1000.67 540.56 1000.67 538.4V530.78C1000.67 530.26 1000.84 529.83 1001.18 529.49C1001.52 529.13 1001.95 528.95 1002.47 528.95C1002.99 528.95 1003.42 529.13 1003.76 529.49C1004.1 529.83 1004.27 530.26 1004.27 530.78V538.4C1004.27 539.62 1004.54 540.53 1005.08 541.13C1005.62 541.71 1006.43 542 1007.51 542C1008.61 542 1009.43 541.71 1009.97 541.13C1010.51 540.53 1010.78 539.62 1010.78 538.4V530.78C1010.78 530.26 1010.95 529.83 1011.29 529.49C1011.63 529.13 1012.06 528.95 1012.58 528.95ZM1031.27 528.65C1031.79 528.65 1032.22 528.82 1032.56 529.16C1032.9 529.5 1033.07 529.94 1033.07 530.48V543.17C1033.07 543.69 1032.9 544.13 1032.56 544.49C1032.22 544.83 1031.79 545 1031.27 545C1030.75 545 1030.32 544.83 1029.98 544.49C1029.66 544.15 1029.49 543.72 1029.47 543.2C1028.97 543.78 1028.29 544.28 1027.43 544.7C1026.59 545.1 1025.7 545.3 1024.76 545.3C1023.38 545.3 1022.13 544.95 1021.01 544.25C1019.89 543.53 1019 542.54 1018.34 541.28C1017.7 540.02 1017.38 538.59 1017.38 536.99C1017.38 535.39 1017.7 533.96 1018.34 532.7C1018.98 531.42 1019.85 530.43 1020.95 529.73C1022.07 529.01 1023.3 528.65 1024.64 528.65C1025.6 528.65 1026.5 528.83 1027.34 529.19C1028.18 529.53 1028.89 529.97 1029.47 530.51V530.48C1029.47 529.96 1029.64 529.53 1029.98 529.19C1030.32 528.83 1030.75 528.65 1031.27 528.65ZM1025.21 542C1026.51 542 1027.57 541.53 1028.39 540.59C1029.21 539.63 1029.62 538.43 1029.62 536.99C1029.62 535.55 1029.21 534.35 1028.39 533.39C1027.57 532.43 1026.51 531.95 1025.21 531.95C1023.93 531.95 1022.88 532.43 1022.06 533.39C1021.24 534.35 1020.83 535.55 1020.83 536.99C1020.83 538.43 1021.23 539.63 1022.03 540.59C1022.85 541.53 1023.91 542 1025.21 542ZM1040.87 543.17C1040.87 543.69 1040.69 544.13 1040.33 544.49C1039.99 544.83 1039.56 545 1039.04 545C1038.54 545 1038.12 544.83 1037.78 544.49C1037.44 544.13 1037.27 543.69 1037.27 543.17V524.63C1037.27 524.11 1037.44 523.68 1037.78 523.34C1038.14 522.98 1038.58 522.8 1039.1 522.8C1039.6 522.8 1040.02 522.98 1040.36 523.34C1040.7 523.68 1040.87 524.11 1040.87 524.63V543.17ZM1061.8 528.65C1062.4 528.65 1062.9 528.82 1063.3 529.16C1063.72 529.5 1063.93 529.9 1063.93 530.36C1063.93 530.98 1063.77 531.45 1063.45 531.77C1063.13 532.07 1062.75 532.22 1062.31 532.22C1062.01 532.22 1061.67 532.15 1061.29 532.01C1061.23 531.99 1061.09 531.95 1060.87 531.89C1060.67 531.83 1060.45 531.8 1060.21 531.8C1059.69 531.8 1059.19 531.96 1058.71 532.28C1058.23 532.6 1057.83 533.09 1057.51 533.75C1057.21 534.39 1057.06 535.16 1057.06 536.06V543.17C1057.06 543.69 1056.89 544.13 1056.55 544.49C1056.21 544.83 1055.78 545 1055.26 545C1054.74 545 1054.31 544.83 1053.97 544.49C1053.63 544.13 1053.46 543.69 1053.46 543.17V530.78C1053.46 530.26 1053.63 529.83 1053.97 529.49C1054.31 529.13 1054.74 528.95 1055.26 528.95C1055.78 528.95 1056.21 529.13 1056.55 529.49C1056.89 529.83 1057.06 530.26 1057.06 530.78V531.17C1057.52 530.35 1058.18 529.73 1059.04 529.31C1059.9 528.87 1060.82 528.65 1061.8 528.65ZM1081.22 536.99C1081.22 538.59 1080.86 540.03 1080.14 541.31C1079.42 542.57 1078.43 543.55 1077.17 544.25C1075.93 544.95 1074.56 545.3 1073.06 545.3C1071.54 545.3 1070.16 544.95 1068.92 544.25C1067.68 543.55 1066.7 542.57 1065.98 541.31C1065.26 540.03 1064.9 538.59 1064.9 536.99C1064.9 535.39 1065.26 533.96 1065.98 532.7C1066.7 531.42 1067.68 530.43 1068.92 529.73C1070.16 529.01 1071.54 528.65 1073.06 528.65C1074.56 528.65 1075.93 529.01 1077.17 529.73C1078.43 530.43 1079.42 531.42 1080.14 532.7C1080.86 533.96 1081.22 535.39 1081.22 536.99ZM1077.62 536.99C1077.62 536.01 1077.41 535.14 1076.99 534.38C1076.59 533.6 1076.04 533 1075.34 532.58C1074.66 532.16 1073.9 531.95 1073.06 531.95C1072.22 531.95 1071.45 532.16 1070.75 532.58C1070.07 533 1069.52 533.6 1069.1 534.38C1068.7 535.14 1068.5 536.01 1068.5 536.99C1068.5 537.97 1068.7 538.84 1069.1 539.6C1069.52 540.36 1070.07 540.95 1070.75 541.37C1071.45 541.79 1072.22 542 1073.06 542C1073.9 542 1074.66 541.79 1075.34 541.37C1076.04 540.95 1076.59 540.36 1076.99 539.6C1077.41 538.84 1077.62 537.97 1077.62 536.99ZM1099.64 536.99C1099.64 538.59 1099.28 540.03 1098.56 541.31C1097.84 542.57 1096.85 543.55 1095.59 544.25C1094.35 544.95 1092.98 545.3 1091.48 545.3C1089.96 545.3 1088.58 544.95 1087.34 544.25C1086.1 543.55 1085.12 542.57 1084.4 541.31C1083.68 540.03 1083.32 538.59 1083.32 536.99C1083.32 535.39 1083.68 533.96 1084.4 532.7C1085.12 531.42 1086.1 530.43 1087.34 529.73C1088.58 529.01 1089.96 528.65 1091.48 528.65C1092.98 528.65 1094.35 529.01 1095.59 529.73C1096.85 530.43 1097.84 531.42 1098.56 532.7C1099.28 533.96 1099.64 535.39 1099.64 536.99ZM1096.04 536.99C1096.04 536.01 1095.83 535.14 1095.41 534.38C1095.01 533.6 1094.46 533 1093.76 532.58C1093.08 532.16 1092.32 531.95 1091.48 531.95C1090.64 531.95 1089.87 532.16 1089.17 532.58C1088.49 533 1087.94 533.6 1087.52 534.38C1087.12 535.14 1086.92 536.01 1086.92 536.99C1086.92 537.97 1087.12 538.84 1087.52 539.6C1087.94 540.36 1088.49 540.95 1089.17 541.37C1089.87 541.79 1090.64 542 1091.48 542C1092.32 542 1093.08 541.79 1093.76 541.37C1094.46 540.95 1095.01 540.36 1095.41 539.6C1095.83 538.84 1096.04 537.97 1096.04 536.99ZM1121.16 528.65C1123.14 528.65 1124.51 529.26 1125.27 530.48C1126.03 531.68 1126.41 533.35 1126.41 535.49V543.17C1126.41 543.69 1126.24 544.13 1125.9 544.49C1125.56 544.83 1125.13 545 1124.61 545C1124.09 545 1123.66 544.83 1123.32 544.49C1122.98 544.13 1122.81 543.69 1122.81 543.17V535.49C1122.81 534.39 1122.59 533.53 1122.15 532.91C1121.73 532.27 1120.98 531.95 1119.9 531.95C1118.78 531.95 1117.9 532.29 1117.26 532.97C1116.64 533.63 1116.33 534.47 1116.33 535.49V543.17C1116.33 543.69 1116.16 544.13 1115.82 544.49C1115.48 544.83 1115.05 545 1114.53 545C1114.01 545 1113.58 544.83 1113.24 544.49C1112.9 544.13 1112.73 543.69 1112.73 543.17V535.49C1112.73 534.39 1112.51 533.53 1112.07 532.91C1111.65 532.27 1110.9 531.95 1109.82 531.95C1108.7 531.95 1107.82 532.29 1107.18 532.97C1106.56 533.63 1106.25 534.47 1106.25 535.49V543.17C1106.25 543.69 1106.08 544.13 1105.74 544.49C1105.4 544.83 1104.97 545 1104.45 545C1103.93 545 1103.5 544.83 1103.16 544.49C1102.82 544.13 1102.65 543.69 1102.65 543.17V530.78C1102.65 530.26 1102.82 529.83 1103.16 529.49C1103.5 529.13 1103.93 528.95 1104.45 528.95C1104.97 528.95 1105.4 529.13 1105.74 529.49C1106.08 529.83 1106.25 530.26 1106.25 530.78V531.26C1106.79 530.54 1107.47 529.93 1108.29 529.43C1109.13 528.91 1110.06 528.65 1111.08 528.65C1113.6 528.65 1115.21 529.75 1115.91 531.95C1116.37 531.11 1117.06 530.35 1117.98 529.67C1118.92 528.99 1119.98 528.65 1121.16 528.65ZM1131.9 544.97C1131.32 544.97 1130.87 544.82 1130.55 544.52C1130.25 544.2 1130.1 543.75 1130.1 543.17V542.66C1130.1 542.08 1130.25 541.64 1130.55 541.34C1130.87 541.02 1131.32 540.86 1131.9 540.86H1132.29C1132.87 540.86 1133.31 541.02 1133.61 541.34C1133.93 541.64 1134.09 542.08 1134.09 542.66V543.17C1134.09 543.75 1133.93 544.2 1133.61 544.52C1133.31 544.82 1132.87 544.97 1132.29 544.97H1131.9Z" fill="white"/>
<defs>
<filter id="filter0_d" x="370.603" y="34.8174" width="194.823" height="214.313" filterUnits="userSpaceOnUse" color-interpolation-filters="sRGB">
<feFlood flood-opacity="0" result="BackgroundImageFix"/>
<feColorMatrix in="SourceAlpha" type="matrix" values="0 0 0 0 0 0 0 0 0 0 0 0 0 0 0 0 0 0 127 0"/>
<feOffset dy="4"/>
<feGaussianBlur stdDeviation="2"/>
<feColorMatrix type="matrix" values="0 0 0 0 0 0 0 0 0 0 0 0 0 0 0 0 0 0 0.25 0"/>
<feBlend mode="normal" in2="BackgroundImageFix" result="effect1_dropShadow"/>
<feBlend mode="normal" in="SourceGraphic" in2="effect1_dropShadow" result="shape"/>
</filter>
<filter id="filter1_d" x="1065.87" y="205.102" width="205.359" height="199.603" filterUnits="userSpaceOnUse" color-interpolation-filters="sRGB">
<feFlood flood-opacity="0" result="BackgroundImageFix"/>
<feColorMatrix in="SourceAlpha" type="matrix" values="0 0 0 0 0 0 0 0 0 0 0 0 0 0 0 0 0 0 127 0"/>
<feOffset dy="4"/>
<feGaussianBlur stdDeviation="2"/>
<feColorMatrix type="matrix" values="0 0 0 0 0 0 0 0 0 0 0 0 0 0 0 0 0 0 0.25 0"/>
<feBlend mode="normal" in2="BackgroundImageFix" result="effect1_dropShadow"/>
<feBlend mode="normal" in="SourceGraphic" in2="effect1_dropShadow" result="shape"/>
</filter>
<filter id="filter2_d" x="1189.88" y="77.6807" width="94.1111" height="95.9961" filterUnits="userSpaceOnUse" color-interpolation-filters="sRGB">
<feFlood flood-opacity="0" result="BackgroundImageFix"/>
<feColorMatrix in="SourceAlpha" type="matrix" values="0 0 0 0 0 0 0 0 0 0 0 0 0 0 0 0 0 0 127 0"/>
<feOffset dy="4"/>
<feGaussianBlur stdDeviation="2"/>
<feColorMatrix type="matrix" values="0 0 0 0 0 0 0 0 0 0 0 0 0 0 0 0 0 0 0.25 0"/>
<feBlend mode="normal" in2="BackgroundImageFix" result="effect1_dropShadow"/>
<feBlend mode="normal" in="SourceGraphic" in2="effect1_dropShadow" result="shape"/>
</filter>
<filter id="filter3_d" x="913.12" y="166.239" width="90.634" height="87.4472" filterUnits="userSpaceOnUse" color-interpolation-filters="sRGB">
<feFlood flood-opacity="0" result="BackgroundImageFix"/>
<feColorMatrix in="SourceAlpha" type="matrix" values="0 0 0 0 0 0 0 0 0 0 0 0 0 0 0 0 0 0 127 0"/>
<feOffset dy="4"/>
<feGaussianBlur stdDeviation="2"/>
<feColorMatrix type="matrix" values="0 0 0 0 0 0 0 0 0 0 0 0 0 0 0 0 0 0 0.25 0"/>
<feBlend mode="normal" in2="BackgroundImageFix" result="effect1_dropShadow"/>
<feBlend mode="normal" in="SourceGraphic" in2="effect1_dropShadow" result="shape"/>
</filter>
<filter id="filter4_d" x="147.153" y="191.416" width="226.543" height="200.285" filterUnits="userSpaceOnUse" color-interpolation-filters="sRGB">
<feFlood flood-opacity="0" result="BackgroundImageFix"/>
<feColorMatrix in="SourceAlpha" type="matrix" values="0 0 0 0 0 0 0 0 0 0 0 0 0 0 0 0 0 0 127 0"/>
<feOffset dy="4"/>
<feGaussianBlur stdDeviation="2"/>
<feColorMatrix type="matrix" values="0 0 0 0 0 0 0 0 0 0 0 0 0 0 0 0 0 0 0.25 0"/>
<feBlend mode="normal" in2="BackgroundImageFix" result="effect1_dropShadow"/>
<feBlend mode="normal" in="SourceGraphic" in2="effect1_dropShadow" result="shape"/>
</filter>
<linearGradient id="paint0_linear" x1="413.823" y1="164.453" x2="521.644" y2="110.256" gradientUnits="userSpaceOnUse">
<stop stop-color="#FF7A00"/>
<stop offset="1" stop-color="white" stop-opacity="0"/>
</linearGradient>
<linearGradient id="paint1_linear" x1="1143.6" y1="276.267" x2="1191.87" y2="327.794" gradientUnits="userSpaceOnUse">
<stop stop-color="#FB8500"/>
<stop offset="1" stop-color="white" stop-opacity="0"/>
</linearGradient>
<linearGradient id="paint2_linear" x1="1214.05" y1="107.475" x2="1257.63" y2="153.991" gradientUnits="userSpaceOnUse">
<stop stop-color="#FB8500"/>
<stop offset="1" stop-color="white" stop-opacity="0"/>
</linearGradient>
<linearGradient id="paint3_linear" x1="946.952" y1="220.672" x2="971.857" y2="191.328" gradientUnits="userSpaceOnUse">
<stop stop-color="#FB8500"/>
<stop offset="1" stop-color="white" stop-opacity="0"/>
</linearGradient>
<linearGradient id="paint4_linear" x1="282.432" y1="222.876" x2="239.522" y2="352.982" gradientUnits="userSpaceOnUse">
<stop stop-color="#FF7A00"/>
<stop offset="1" stop-color="white" stop-opacity="0"/>
</linearGradient>
</defs>
</svg>
